<svg width="99" height="50" viewBox="0 0 99 50" fill="none" xmlns="http://www.w3.org/2000/svg">
<path d="M97.333 1C81.7361 2.29974 80.7702 33.4164 65.333 37C52.6032 39.9551 46.1571 23.1804 33.333 25C19.4233 26.9737 14.9721 44.4536 1.33301 49H97.333V1Z" fill="#ECFDF3"/>
<path d="M97.333 1C81.7361 2.29974 80.7702 33.4164 65.333 37C52.6032 39.9551 46.1571 23.1804 33.333 25C19.4233 26.9737 14.9721 44.4536 1.33301 49H97.333V1Z" fill="url(#paint0_linear_1870_26248)"/>
<path d="M1.33301 49C14.9721 44.4536 19.4233 26.9737 33.333 25C46.1571 23.1804 52.6032 39.9551 65.333 37C80.7702 33.4164 81.7361 2.29974 97.333 1" stroke="#12B76A" stroke-width="1.5" stroke-linecap="round" stroke-linejoin="round"/>
<defs>
<linearGradient id="paint0_linear_1870_26248" x1="49.333" y1="1" x2="49.333" y2="49" gradientUnits="userSpaceOnUse">
<stop offset="0.641167" stop-color="white" stop-opacity="0"/>
<stop offset="1" stop-color="white"/>
</linearGradient>
</defs>
</svg>
