<svg width="25" height="52" viewBox="0 0 25 52" fill="none" xmlns="http://www.w3.org/2000/svg">
<rect width="25" height="51.3514" fill="black" fill-opacity="0.01"/>
<path fill-rule="evenodd" clip-rule="evenodd" d="M9.79764 29.7307C10.544 29.7307 11.149 30.3358 11.149 31.0821C11.149 31.8284 10.544 32.4334 9.79764 32.4334C9.05131 32.4334 8.44629 31.8284 8.44629 31.0821C8.44629 30.3358 9.05131 29.7307 9.79764 29.7307ZM15.203 29.7307C15.9494 29.7307 16.5544 30.3358 16.5544 31.0821C16.5544 31.8284 15.9494 32.4334 15.203 32.4334C14.4567 32.4334 13.8517 31.8284 13.8517 31.0821C13.8517 30.3358 14.4567 29.7307 15.203 29.7307ZM9.79764 24.3253C10.544 24.3253 11.149 24.9303 11.149 25.6767C11.149 26.423 10.544 27.028 9.79764 27.028C9.05131 27.028 8.44629 26.423 8.44629 25.6767C8.44629 24.9303 9.05131 24.3253 9.79764 24.3253ZM15.203 24.3253C15.9494 24.3253 16.5544 24.9303 16.5544 25.6767C16.5544 26.423 15.9494 27.028 15.203 27.028C14.4567 27.028 13.8517 26.423 13.8517 25.6767C13.8517 24.9303 14.4567 24.3253 15.203 24.3253ZM9.79764 18.9199C10.544 18.9199 11.149 19.5249 11.149 20.2713C11.149 21.0176 10.544 21.6226 9.79764 21.6226C9.05131 21.6226 8.44629 21.0176 8.44629 20.2713C8.44629 19.5249 9.05131 18.9199 9.79764 18.9199ZM15.203 18.9199C15.9494 18.9199 16.5544 19.5249 16.5544 20.2713C16.5544 21.0176 15.9494 21.6226 15.203 21.6226C14.4567 21.6226 13.8517 21.0176 13.8517 20.2713C13.8517 19.5249 14.4567 18.9199 15.203 18.9199Z" fill="#9FA6AD"/>
</svg>
