<svg width="24" height="23" viewBox="0 0 24 23" fill="none" xmlns="http://www.w3.org/2000/svg">
<path d="M9.8704 4.74071L10.4007 4.21038L9.8704 4.74071C10.0423 4.91262 10.1389 5.14577 10.1389 5.38889C10.1389 5.632 10.0423 5.86516 9.8704 6.03707L10.4007 6.5674L9.8704 6.03707C9.6985 6.20898 9.46534 6.30556 9.22222 6.30556C8.97911 6.30556 8.74595 6.20898 8.57404 6.03707L8.04371 6.5674L8.57404 6.03707C8.40213 5.86516 8.30556 5.632 8.30556 5.38889C8.30556 5.14577 8.40213 4.91262 8.57404 4.74071C8.74595 4.5688 8.97911 4.47222 9.22222 4.47222C9.46534 4.47222 9.6985 4.5688 9.8704 4.74071ZM18.1111 10.75C17.868 10.75 17.6348 10.6534 17.4629 10.4815C17.291 10.3096 17.1944 10.0764 17.1944 9.83333C17.1944 9.59022 17.291 9.35706 17.4629 9.18515C17.6348 9.01324 17.868 8.91667 18.1111 8.91667C18.3542 8.91667 18.5874 9.01324 18.7593 9.18515C18.9312 9.35706 19.0278 9.59022 19.0278 9.83333C19.0278 10.0764 18.9312 10.3096 18.7593 10.4815C18.5874 10.6534 18.3542 10.75 18.1111 10.75ZM14.7778 6.30556C14.5347 6.30556 14.3015 6.20898 14.1296 6.03707C13.9577 5.86516 13.8611 5.632 13.8611 5.38889C13.8611 5.14577 13.9577 4.91262 14.1296 4.74071L13.5993 4.21038L14.1296 4.74071C14.3015 4.5688 14.5347 4.47222 14.7778 4.47222C15.0209 4.47222 15.2541 4.5688 15.426 4.74071C15.5979 4.91262 15.6944 5.14577 15.6944 5.38889C15.6944 5.632 15.5979 5.86516 15.426 6.03707C15.2541 6.20898 15.0209 6.30556 14.7778 6.30556ZM5.88889 10.75C5.64577 10.75 5.41262 10.6534 5.24071 10.4815C5.0688 10.3096 4.97222 10.0764 4.97222 9.83333C4.97222 9.59022 5.0688 9.35706 5.24071 9.18515C5.41262 9.01324 5.64577 8.91667 5.88889 8.91667C6.132 8.91667 6.36516 9.01324 6.53707 9.18515L7.0674 8.65482L6.53707 9.18515C6.70898 9.35706 6.80556 9.59022 6.80556 9.83333C6.80556 10.0764 6.70898 10.3096 6.53707 10.4815C6.36516 10.6534 6.132 10.75 5.88889 10.75ZM12 0.75C9.14892 0.75 6.41462 1.88259 4.3986 3.8986C2.38259 5.91462 1.25 8.64892 1.25 11.5C1.25 14.3511 2.38259 17.0854 4.3986 19.1014C6.41462 21.1174 9.14892 22.25 12 22.25C12.6409 22.25 13.2556 21.9954 13.7088 21.5422C14.1621 21.089 14.4167 20.4743 14.4167 19.8333C14.4167 19.2098 14.1784 18.6468 13.7967 18.2269C13.6463 18.0466 13.5611 17.8294 13.5611 17.6111C13.5611 17.368 13.6577 17.1348 13.8296 16.9629C14.0015 16.791 14.2347 16.6944 14.4778 16.6944H16.4444C18.1168 16.6944 19.7206 16.0301 20.9031 14.8476C22.0857 13.6651 22.75 12.0612 22.75 10.3889C22.75 4.98283 17.8508 0.75 12 0.75Z" stroke="#0000FF" stroke-width="1.5"/>
</svg>
