<svg width="40" height="40" viewBox="0 0 40 40" fill="none" xmlns="http://www.w3.org/2000/svg">
<g clip-path="url(#clip0_1949_63730)">
<path d="M14.167 22.4993H13.3337C12.8916 22.4993 12.4677 22.3238 12.1551 22.0112C11.8426 21.6986 11.667 21.2747 11.667 20.8327V13.3327C11.667 12.8907 11.8426 12.4667 12.1551 12.1542C12.4677 11.8416 12.8916 11.666 13.3337 11.666H20.8337C21.2757 11.666 21.6996 11.8416 22.0122 12.1542C22.3247 12.4667 22.5003 12.8907 22.5003 13.3327V14.166M19.167 17.4993H26.667C27.5875 17.4993 28.3337 18.2455 28.3337 19.166V26.666C28.3337 27.5865 27.5875 28.3327 26.667 28.3327H19.167C18.2465 28.3327 17.5003 27.5865 17.5003 26.666V19.166C17.5003 18.2455 18.2465 17.4993 19.167 17.4993Z" stroke="#667085" stroke-width="1.67" stroke-linecap="round" stroke-linejoin="round"/>
</g>
<defs>
<clipPath id="clip0_1949_63730">
<rect width="20" height="20" fill="white" transform="translate(10 10)"/>
</clipPath>
</defs>
</svg>
