<svg width="24" height="21" viewBox="0 0 24 21" fill="none" xmlns="http://www.w3.org/2000/svg">
<path d="M7.9992 15.9999L11.9992 19.9999M11.9992 19.9999L15.9992 15.9999M11.9992 19.9999V10.9999M20.8792 17.0899C21.7486 16.4786 22.4006 15.6061 22.7405 14.5991C23.0804 13.5921 23.0906 12.503 22.7696 11.4898C22.4486 10.4766 21.8131 9.59202 20.9553 8.96449C20.0975 8.33697 19.062 7.9991 17.9992 7.99993H16.7392C16.4384 6.82781 15.8757 5.73918 15.0933 4.81601C14.311 3.89285 13.3293 3.15919 12.2224 2.67029C11.1155 2.18138 9.91204 1.94996 8.70273 1.99345C7.49341 2.03694 6.30971 2.3542 5.24075 2.92136C4.17179 3.48851 3.24543 4.29078 2.53139 5.26776C1.81735 6.24474 1.33425 7.37098 1.11846 8.56168C0.902671 9.75239 0.959811 10.9765 1.28558 12.142C1.61135 13.3074 2.19726 14.3837 2.9992 15.2899" stroke="#FE0000" stroke-width="2" stroke-linecap="round" stroke-linejoin="round"/>
</svg>
