<svg width="25" height="24" viewBox="0 0 25 24" fill="none" xmlns="http://www.w3.org/2000/svg">
<path fill-rule="evenodd" clip-rule="evenodd" d="M8.5 18C9.60457 18 10.5 18.8954 10.5 20C10.5 21.1046 9.60457 22 8.5 22C7.39543 22 6.5 21.1046 6.5 20C6.5 18.8954 7.39543 18 8.5 18ZM16.5 18C17.6046 18 18.5 18.8954 18.5 20C18.5 21.1046 17.6046 22 16.5 22C15.3954 22 14.5 21.1046 14.5 20C14.5 18.8954 15.3954 18 16.5 18ZM8.5 10C9.60457 10 10.5 10.8954 10.5 12C10.5 13.1046 9.60457 14 8.5 14C7.39543 14 6.5 13.1046 6.5 12C6.5 10.8954 7.39543 10 8.5 10ZM16.5 10C17.6046 10 18.5 10.8954 18.5 12C18.5 13.1046 17.6046 14 16.5 14C15.3954 14 14.5 13.1046 14.5 12C14.5 10.8954 15.3954 10 16.5 10ZM8.5 2C9.60457 2 10.5 2.89543 10.5 4C10.5 5.10457 9.60457 6 8.5 6C7.39543 6 6.5 5.10457 6.5 4C6.5 2.89543 7.39543 2 8.5 2ZM16.5 2C17.6046 2 18.5 2.89543 18.5 4C18.5 5.10457 17.6046 6 16.5 6C15.3954 6 14.5 5.10457 14.5 4C14.5 2.89543 15.3954 2 16.5 2Z" fill="#9FA6AD"/>
</svg>
