<svg width="24" height="48" viewBox="0 0 24 48" fill="none" xmlns="http://www.w3.org/2000/svg">
<path fill-rule="evenodd" clip-rule="evenodd" d="M8 30C9.10457 30 10 30.8954 10 32C10 33.1046 9.10457 34 8 34C6.89543 34 6 33.1046 6 32C6 30.8954 6.89543 30 8 30ZM16 30C17.1046 30 18 30.8954 18 32C18 33.1046 17.1046 34 16 34C14.8954 34 14 33.1046 14 32C14 30.8954 14.8954 30 16 30ZM8 22C9.10457 22 10 22.8954 10 24C10 25.1046 9.10457 26 8 26C6.89543 26 6 25.1046 6 24C6 22.8954 6.89543 22 8 22ZM16 22C17.1046 22 18 22.8954 18 24C18 25.1046 17.1046 26 16 26C14.8954 26 14 25.1046 14 24C14 22.8954 14.8954 22 16 22ZM8 14C9.10457 14 10 14.8954 10 16C10 17.1046 9.10457 18 8 18C6.89543 18 6 17.1046 6 16C6 14.8954 6.89543 14 8 14ZM16 14C17.1046 14 18 14.8954 18 16C18 17.1046 17.1046 18 16 18C14.8954 18 14 17.1046 14 16C14 14.8954 14.8954 14 16 14Z" fill="#C9D2D8"/>
</svg>
