<svg width="40" height="40" viewBox="0 0 40 40" fill="none" xmlns="http://www.w3.org/2000/svg">
<g clip-path="url(#clip0_1796_9605)">
<path d="M24.1665 12.5009C24.3854 12.282 24.6452 12.1084 24.9312 11.99C25.2171 11.8715 25.5236 11.8105 25.8332 11.8105C26.1427 11.8105 26.4492 11.8715 26.7352 11.99C27.0211 12.1084 27.281 12.282 27.4998 12.5009C27.7187 12.7198 27.8923 12.9796 28.0108 13.2656C28.1292 13.5515 28.1902 13.858 28.1902 14.1676C28.1902 14.4771 28.1292 14.7836 28.0108 15.0696C27.8923 15.3555 27.7187 15.6154 27.4998 15.8342L16.2498 27.0842L11.6665 28.3342L12.9165 23.7509L24.1665 12.5009Z" stroke="#667085" stroke-width="1.66667" stroke-linecap="round" stroke-linejoin="round"/>
</g>
<defs>
<clipPath id="clip0_1796_9605">
<rect width="20" height="20" fill="white" transform="translate(10 10)"/>
</clipPath>
</defs>
</svg>
