<svg width="24" height="25" viewBox="0 0 24 25" fill="none" xmlns="http://www.w3.org/2000/svg">
<g clip-path="url(#clip0_1350_6339)">
<path d="M24 12.1172C24 5.48977 18.6274 0.117188 12 0.117188C5.37258 0.117188 0 5.48977 0 12.1172C0 18.1066 4.3882 23.0712 10.125 23.9714V15.5859H7.07812V12.1172H10.125V9.47344C10.125 6.46594 11.9166 4.80469 14.6576 4.80469C15.9701 4.80469 17.3438 5.03906 17.3438 5.03906V7.99219H15.8306C14.34 7.99219 13.875 8.91727 13.875 9.86719V12.1172H17.2031L16.6711 15.5859H13.875V23.9714C19.6118 23.0712 24 18.1066 24 12.1172Z" fill="#98A2B3"/>
</g>
<defs>
<clipPath id="clip0_1350_6339">
<rect width="24" height="24" fill="white" transform="translate(0 0.117188)"/>
</clipPath>
</defs>
</svg>
