<svg width="16" height="17" viewBox="0 0 16 17" fill="none" xmlns="http://www.w3.org/2000/svg">
<g clip-path="url(#clip0_2303_14996)">
<path d="M9.33366 1.59961H4.00033C3.6467 1.59961 3.30756 1.74009 3.05752 1.99013C2.80747 2.24018 2.66699 2.57932 2.66699 2.93294V13.5996C2.66699 13.9532 2.80747 14.2924 3.05752 14.5424C3.30756 14.7925 3.6467 14.9329 4.00033 14.9329H12.0003C12.3539 14.9329 12.6931 14.7925 12.9431 14.5424C13.1932 14.2924 13.3337 13.9532 13.3337 13.5996V5.59961M9.33366 1.59961L13.3337 5.59961M9.33366 1.59961V5.59961H13.3337M10.667 8.93294H5.33366M10.667 11.5996H5.33366M6.66699 6.26628H5.33366" stroke="#0C0EFF" stroke-width="1.5" stroke-linecap="round" stroke-linejoin="round"/>
</g>
<defs>
<clipPath id="clip0_2303_14996">
<rect width="16" height="16" fill="white" transform="translate(0 0.265625)"/>
</clipPath>
</defs>
</svg>
