<svg width="16" height="17" viewBox="0 0 16 17" fill="none" xmlns="http://www.w3.org/2000/svg">
<path d="M3.33333 14.2656H12.6667C13.403 14.2656 14 13.6687 14 12.9323V3.59896C14 2.86258 13.403 2.26562 12.6667 2.26562H3.33333C2.59695 2.26562 2 2.86258 2 3.59896V12.9323C2 13.6687 2.59695 14.2656 3.33333 14.2656ZM3.33333 14.2656L10.6667 6.93229L14 10.2656M6.66667 5.93229C6.66667 6.48458 6.21895 6.93229 5.66667 6.93229C5.11438 6.93229 4.66667 6.48458 4.66667 5.93229C4.66667 5.38001 5.11438 4.93229 5.66667 4.93229C6.21895 4.93229 6.66667 5.38001 6.66667 5.93229Z" stroke="#0C0EFF" stroke-width="1.5" stroke-linecap="round" stroke-linejoin="round"/>
</svg>
