<svg width="44" height="44" viewBox="0 0 44 44" fill="none" xmlns="http://www.w3.org/2000/svg">
<path d="M26 31V29C26 27.9391 25.5786 26.9217 24.8284 26.1716C24.0783 25.4214 23.0609 25 22 25H15C13.9391 25 12.9217 25.4214 12.1716 26.1716C11.4214 26.9217 11 27.9391 11 29V31M27 21L29 23L33 19M22.5 17C22.5 19.2091 20.7091 21 18.5 21C16.2909 21 14.5 19.2091 14.5 17C14.5 14.7909 16.2909 13 18.5 13C20.7091 13 22.5 14.7909 22.5 17Z" stroke="#667085" stroke-width="2" stroke-linecap="round" stroke-linejoin="round"/>
</svg>
