<svg width="24" height="25" viewBox="0 0 24 25" fill="none" xmlns="http://www.w3.org/2000/svg">
<g clip-path="url(#clip0_1350_6336)">
<path d="M22.2234 0.117188H1.77187C0.792187 0.117188 0 0.890625 0 1.84688V22.3828C0 23.3391 0.792187 24.1172 1.77187 24.1172H22.2234C23.2031 24.1172 24 23.3391 24 22.3875V1.84688C24 0.890625 23.2031 0.117188 22.2234 0.117188ZM7.12031 20.5687H3.55781V9.1125H7.12031V20.5687ZM5.33906 7.55156C4.19531 7.55156 3.27188 6.62812 3.27188 5.48906C3.27188 4.35 4.19531 3.42656 5.33906 3.42656C6.47813 3.42656 7.40156 4.35 7.40156 5.48906C7.40156 6.62344 6.47813 7.55156 5.33906 7.55156ZM20.4516 20.5687H16.8937V15C16.8937 13.6734 16.8703 11.9625 15.0422 11.9625C13.1906 11.9625 12.9094 13.4109 12.9094 14.9062V20.5687H9.35625V9.1125H12.7687V10.6781H12.8156C13.2891 9.77813 14.4516 8.82656 16.1813 8.82656C19.7859 8.82656 20.4516 11.1984 20.4516 14.2828V20.5687Z" fill="#98A2B3"/>
</g>
<defs>
<clipPath id="clip0_1350_6336">
<rect width="24" height="24" fill="white" transform="translate(0 0.117188)"/>
</clipPath>
</defs>
</svg>
