<svg width="361" height="32" viewBox="0 0 361 32" fill="none" xmlns="http://www.w3.org/2000/svg">
<rect x="24.5" y="12.7998" width="9.42957" height="6.39999" fill="#039855"/>
<rect x="52.7888" y="19.2002" width="9.42959" height="6.39999" transform="rotate(180 52.7888 19.2002)" fill="#027A48"/>
<path d="M33.9297 12.8004L43.3593 6.40039V12.8004L33.9297 19.2004V12.8004Z" fill="#A6F4C5"/>
<path d="M43.3591 19.1996L33.9296 25.5996L33.9296 19.1996L43.3591 12.7996L43.3591 19.1996Z" fill="#6CE9A6"/>
<path d="M24.5 12.8L43.3591 0V6.39999L33.9296 12.8H24.5Z" fill="#32D583"/>
<path d="M52.7888 19.2L33.9297 32L33.9297 25.6L43.3592 19.2L52.7888 19.2Z" fill="#12B76A"/>
<path d="M74.5977 12.6197C74.538 12.0181 74.282 11.5508 73.8296 11.2177C73.3772 10.8846 72.7632 10.718 71.9876 10.718C71.4606 10.718 71.0156 10.7926 70.6527 10.9418C70.2898 11.0859 70.0114 11.2873 69.8175 11.5458C69.6286 11.8043 69.5341 12.0977 69.5341 12.4258C69.5242 12.6992 69.5813 12.9379 69.7056 13.1417C69.8349 13.3455 70.0114 13.522 70.2351 13.6712C70.4588 13.8153 70.7174 13.9421 71.0107 14.0515C71.304 14.1559 71.6172 14.2454 71.9503 14.32L73.3225 14.6481C73.9887 14.7972 74.6002 14.9961 75.157 15.2447C75.7138 15.4933 76.196 15.799 76.6037 16.1619C77.0114 16.5249 77.3271 16.9524 77.5508 17.4446C77.7795 17.9368 77.8963 18.5011 77.9013 19.1374C77.8963 20.0721 77.6577 20.8825 77.1854 21.5685C76.7181 22.2496 76.0419 22.7791 75.157 23.157C74.277 23.5298 73.2156 23.7163 71.9727 23.7163C70.7397 23.7163 69.6659 23.5273 68.7511 23.1495C67.8413 22.7717 67.1303 22.2124 66.6183 21.4716C66.1112 20.7259 65.8452 19.8036 65.8203 18.7049H68.945C68.9798 19.217 69.1264 19.6445 69.385 19.9876C69.6485 20.3256 69.999 20.5817 70.4365 20.7557C70.8789 20.9247 71.3786 21.0092 71.9354 21.0092C72.4823 21.0092 72.9571 20.9297 73.3598 20.7706C73.7674 20.6115 74.0831 20.3903 74.3068 20.1069C74.5306 19.8235 74.6424 19.4979 74.6424 19.13C74.6424 18.7869 74.5405 18.4986 74.3367 18.2649C74.1378 18.0312 73.8445 17.8324 73.4567 17.6683C73.0739 17.5043 72.6041 17.3551 72.0473 17.2209L70.3843 16.8033C69.0966 16.4901 68.0799 16.0004 67.3342 15.3342C66.5884 14.668 66.2181 13.7706 66.223 12.642C66.2181 11.7173 66.4642 10.9094 66.9613 10.2184C67.4634 9.52734 68.152 8.98793 69.027 8.60014C69.902 8.21236 70.8963 8.01847 72.01 8.01847C73.1435 8.01847 74.1328 8.21236 74.978 8.60014C75.8281 8.98793 76.4894 9.52734 76.9617 10.2184C77.434 10.9094 77.6776 11.7099 77.6925 12.6197H74.5977ZM85.189 23.7237C84.0157 23.7237 83.0065 23.4751 82.1613 22.978C81.3211 22.4759 80.6748 21.7798 80.2224 20.8899C79.775 20 79.5512 18.9759 79.5512 17.8175C79.5512 16.6442 79.7775 15.6151 80.2299 14.7301C80.6873 13.8402 81.336 13.1467 82.1762 12.6495C83.0164 12.1474 84.0157 11.8963 85.1741 11.8963C86.1734 11.8963 87.0484 12.0778 87.7991 12.4407C88.5498 12.8036 89.1439 13.3132 89.5814 13.9695C90.0189 14.6257 90.2601 15.3963 90.3048 16.2812H87.3069C87.2224 15.7095 86.9987 15.2496 86.6358 14.9016C86.2778 14.5487 85.808 14.3722 85.2263 14.3722C84.7341 14.3722 84.3041 14.5064 83.9362 14.7749C83.5733 15.0384 83.2899 15.4237 83.086 15.9308C82.8822 16.4379 82.7803 17.0518 82.7803 17.7727C82.7803 18.5036 82.8797 19.125 83.0786 19.6371C83.2824 20.1491 83.5683 20.5394 83.9362 20.8079C84.3041 21.0763 84.7341 21.2106 85.2263 21.2106C85.5892 21.2106 85.9149 21.136 86.2032 20.9869C86.4966 20.8377 86.7377 20.6214 86.9266 20.3381C87.1205 20.0497 87.2473 19.7042 87.3069 19.3015H90.3048C90.2551 20.1765 90.0164 20.9471 89.5889 21.6133C89.1663 22.2745 88.5821 22.7915 87.8364 23.1644C87.0907 23.5373 86.2082 23.7237 85.189 23.7237ZM95.5156 16.8778V23.5H92.3388V8.22727H95.4262V14.0664H95.5604C95.8189 13.3903 96.2365 12.8608 96.8132 12.478C97.3899 12.0902 98.1133 11.8963 98.9833 11.8963C99.7788 11.8963 100.472 12.0703 101.064 12.4183C101.661 12.7614 102.123 13.256 102.451 13.9023C102.784 14.5437 102.948 15.3118 102.943 16.2067V23.5H99.7664V16.7734C99.7713 16.0675 99.5924 15.5181 99.2294 15.1254C98.8715 14.7326 98.3693 14.5362 97.723 14.5362C97.2905 14.5362 96.9077 14.6282 96.5746 14.8121C96.2465 14.9961 95.9879 15.2646 95.799 15.6175C95.6151 15.9656 95.5206 16.3857 95.5156 16.8778ZM110.619 23.7237C109.46 23.7237 108.459 23.4776 107.613 22.9854C106.773 22.4883 106.124 21.7972 105.667 20.9123C105.21 20.0224 104.981 18.9908 104.981 17.8175C104.981 16.6342 105.21 15.6001 105.667 14.7152C106.124 13.8253 106.773 13.1342 107.613 12.642C108.459 12.1449 109.46 11.8963 110.619 11.8963C111.777 11.8963 112.776 12.1449 113.617 12.642C114.462 13.1342 115.113 13.8253 115.57 14.7152C116.028 15.6001 116.257 16.6342 116.257 17.8175C116.257 18.9908 116.028 20.0224 115.57 20.9123C115.113 21.7972 114.462 22.4883 113.617 22.9854C112.776 23.4776 111.777 23.7237 110.619 23.7237ZM110.634 21.2628C111.161 21.2628 111.601 21.1136 111.954 20.8153C112.307 20.5121 112.573 20.0994 112.752 19.5774C112.935 19.0554 113.027 18.4613 113.027 17.7951C113.027 17.1289 112.935 16.5348 112.752 16.0128C112.573 15.4908 112.307 15.0781 111.954 14.7749C111.601 14.4716 111.161 14.32 110.634 14.32C110.102 14.32 109.654 14.4716 109.291 14.7749C108.933 15.0781 108.662 15.4908 108.478 16.0128C108.299 16.5348 108.21 17.1289 108.21 17.7951C108.21 18.4613 108.299 19.0554 108.478 19.5774C108.662 20.0994 108.933 20.5121 109.291 20.8153C109.654 21.1136 110.102 21.2628 110.634 21.2628ZM121.499 8.22727V23.5H118.322V8.22727H121.499ZM127.31 23.7163C126.579 23.7163 125.928 23.5895 125.356 23.3359C124.785 23.0774 124.332 22.6971 123.999 22.195C123.671 21.6879 123.507 21.0565 123.507 20.3008C123.507 19.6644 123.624 19.13 123.857 18.6974C124.091 18.2649 124.409 17.9169 124.812 17.6534C125.215 17.3899 125.672 17.1911 126.184 17.0568C126.701 16.9226 127.243 16.8281 127.81 16.7734C128.476 16.7038 129.013 16.6392 129.421 16.5795C129.828 16.5149 130.124 16.4205 130.308 16.2962C130.492 16.1719 130.584 15.9879 130.584 15.7443V15.6996C130.584 15.2273 130.435 14.8619 130.137 14.6033C129.843 14.3448 129.426 14.2156 128.884 14.2156C128.312 14.2156 127.857 14.3423 127.519 14.5959C127.181 14.8445 126.957 15.1577 126.848 15.5355L123.91 15.2969C124.059 14.6009 124.352 13.9993 124.79 13.4922C125.227 12.9801 125.791 12.5874 126.482 12.3139C127.178 12.0355 127.984 11.8963 128.899 11.8963C129.535 11.8963 130.144 11.9709 130.726 12.12C131.312 12.2692 131.832 12.5004 132.284 12.8136C132.742 13.1268 133.102 13.5295 133.366 14.0217C133.629 14.5089 133.761 15.093 133.761 15.7741V23.5H130.748V21.9116H130.659C130.475 22.2695 130.229 22.5852 129.92 22.8587C129.612 23.1271 129.242 23.3384 128.809 23.4925C128.377 23.6417 127.877 23.7163 127.31 23.7163ZM128.22 21.5238C128.687 21.5238 129.1 21.4318 129.458 21.2479C129.816 21.0589 130.097 20.8054 130.301 20.4872C130.504 20.169 130.606 19.8086 130.606 19.4059V18.1903C130.507 18.255 130.37 18.3146 130.196 18.3693C130.027 18.419 129.836 18.4663 129.622 18.511C129.408 18.5508 129.194 18.5881 128.981 18.6229C128.767 18.6527 128.573 18.68 128.399 18.7049C128.026 18.7596 127.7 18.8466 127.422 18.9659C127.144 19.0852 126.927 19.2468 126.773 19.4506C126.619 19.6495 126.542 19.8981 126.542 20.1964C126.542 20.6289 126.699 20.9595 127.012 21.1882C127.33 21.4119 127.733 21.5238 128.22 21.5238ZM145.756 15.3118L142.848 15.4908C142.798 15.2422 142.691 15.0185 142.527 14.8196C142.363 14.6158 142.147 14.4542 141.878 14.3349C141.615 14.2106 141.299 14.1484 140.931 14.1484C140.439 14.1484 140.024 14.2528 139.686 14.4616C139.348 14.6655 139.179 14.9389 139.179 15.282C139.179 15.5554 139.288 15.7866 139.507 15.9755C139.726 16.1644 140.101 16.3161 140.633 16.4304L142.706 16.848C143.82 17.0767 144.65 17.4446 145.197 17.9517C145.744 18.4588 146.017 19.125 146.017 19.9503C146.017 20.701 145.796 21.3597 145.353 21.9265C144.916 22.4933 144.314 22.9357 143.549 23.2539C142.788 23.5671 141.911 23.7237 140.916 23.7237C139.4 23.7237 138.192 23.408 137.292 22.7766C136.397 22.1403 135.873 21.2752 135.718 20.1815L138.843 20.0174C138.938 20.4798 139.166 20.8327 139.529 21.0763C139.892 21.315 140.357 21.4343 140.924 21.4343C141.48 21.4343 141.928 21.3274 142.266 21.1136C142.609 20.8949 142.783 20.614 142.788 20.271C142.783 19.9826 142.661 19.7464 142.423 19.5625C142.184 19.3736 141.816 19.2294 141.319 19.13L139.335 18.7347C138.217 18.511 137.384 18.1232 136.837 17.5714C136.295 17.0195 136.024 16.3161 136.024 15.4609C136.024 14.7251 136.223 14.0913 136.621 13.5593C137.023 13.0273 137.588 12.6172 138.314 12.3288C139.044 12.0405 139.9 11.8963 140.879 11.8963C142.326 11.8963 143.464 12.2021 144.294 12.8136C145.13 13.4251 145.617 14.2578 145.756 15.3118ZM154.11 12.0455V14.4318H147.212V12.0455H154.11ZM148.778 9.30114H151.955V19.9801C151.955 20.2734 152 20.5021 152.089 20.6662C152.179 20.8253 152.303 20.9371 152.462 21.0018C152.626 21.0664 152.815 21.0987 153.029 21.0987C153.178 21.0987 153.327 21.0863 153.476 21.0614C153.625 21.0316 153.74 21.0092 153.819 20.9943L154.319 23.3583C154.16 23.408 153.936 23.4652 153.648 23.5298C153.359 23.5994 153.009 23.6417 152.596 23.6566C151.831 23.6864 151.16 23.5845 150.583 23.3509C150.011 23.1172 149.566 22.7543 149.248 22.2621C148.93 21.7699 148.773 21.1484 148.778 20.3977V9.30114ZM156.18 23.5V12.0455H159.356V23.5H156.18ZM157.776 10.5689C157.303 10.5689 156.898 10.4123 156.56 10.0991C156.227 9.78089 156.06 9.40057 156.06 8.9581C156.06 8.5206 156.227 8.14524 156.56 7.83203C156.898 7.51385 157.303 7.35476 157.776 7.35476C158.248 7.35476 158.651 7.51385 158.984 7.83203C159.322 8.14524 159.491 8.5206 159.491 8.9581C159.491 9.40057 159.322 9.78089 158.984 10.0991C158.651 10.4123 158.248 10.5689 157.776 10.5689ZM167.077 23.7237C165.903 23.7237 164.894 23.4751 164.049 22.978C163.209 22.4759 162.563 21.7798 162.11 20.8899C161.663 20 161.439 18.9759 161.439 17.8175C161.439 16.6442 161.665 15.6151 162.118 14.7301C162.575 13.8402 163.224 13.1467 164.064 12.6495C164.904 12.1474 165.903 11.8963 167.062 11.8963C168.061 11.8963 168.936 12.0778 169.687 12.4407C170.438 12.8036 171.032 13.3132 171.469 13.9695C171.907 14.6257 172.148 15.3963 172.192 16.2812H169.195C169.11 15.7095 168.886 15.2496 168.523 14.9016C168.166 14.5487 167.696 14.3722 167.114 14.3722C166.622 14.3722 166.192 14.5064 165.824 14.7749C165.461 15.0384 165.178 15.4237 164.974 15.9308C164.77 16.4379 164.668 17.0518 164.668 17.7727C164.668 18.5036 164.767 19.125 164.966 19.6371C165.17 20.1491 165.456 20.5394 165.824 20.8079C166.192 21.0763 166.622 21.2106 167.114 21.2106C167.477 21.2106 167.803 21.136 168.091 20.9869C168.384 20.8377 168.625 20.6214 168.814 20.3381C169.008 20.0497 169.135 19.7042 169.195 19.3015H172.192C172.143 20.1765 171.904 20.9471 171.477 21.6133C171.054 22.2745 170.47 22.7915 169.724 23.1644C168.978 23.5373 168.096 23.7237 167.077 23.7237ZM177.493 23.7163C176.762 23.7163 176.111 23.5895 175.539 23.3359C174.967 23.0774 174.515 22.6971 174.182 22.195C173.854 21.6879 173.69 21.0565 173.69 20.3008C173.69 19.6644 173.806 19.13 174.04 18.6974C174.274 18.2649 174.592 17.9169 174.995 17.6534C175.397 17.3899 175.855 17.1911 176.367 17.0568C176.884 16.9226 177.426 16.8281 177.992 16.7734C178.659 16.7038 179.196 16.6392 179.603 16.5795C180.011 16.5149 180.307 16.4205 180.491 16.2962C180.675 16.1719 180.767 15.9879 180.767 15.7443V15.6996C180.767 15.2273 180.617 14.8619 180.319 14.6033C180.026 14.3448 179.608 14.2156 179.066 14.2156C178.495 14.2156 178.04 14.3423 177.702 14.5959C177.364 14.8445 177.14 15.1577 177.03 15.5355L174.092 15.2969C174.241 14.6009 174.535 13.9993 174.972 13.4922C175.41 12.9801 175.974 12.5874 176.665 12.3139C177.361 12.0355 178.166 11.8963 179.081 11.8963C179.718 11.8963 180.327 11.9709 180.908 12.12C181.495 12.2692 182.014 12.5004 182.467 12.8136C182.924 13.1268 183.285 13.5295 183.548 14.0217C183.812 14.5089 183.943 15.093 183.943 15.7741V23.5H180.931V21.9116H180.841C180.657 22.2695 180.411 22.5852 180.103 22.8587C179.795 23.1271 179.424 23.3384 178.992 23.4925C178.559 23.6417 178.06 23.7163 177.493 23.7163ZM178.403 21.5238C178.87 21.5238 179.283 21.4318 179.641 21.2479C179.999 21.0589 180.279 20.8054 180.483 20.4872C180.687 20.169 180.789 19.8086 180.789 19.4059V18.1903C180.69 18.255 180.553 18.3146 180.379 18.3693C180.21 18.419 180.018 18.4663 179.805 18.511C179.591 18.5508 179.377 18.5881 179.163 18.6229C178.95 18.6527 178.756 18.68 178.582 18.7049C178.209 18.7596 177.883 18.8466 177.605 18.9659C177.326 19.0852 177.11 19.2468 176.956 19.4506C176.802 19.6495 176.725 19.8981 176.725 20.1964C176.725 20.6289 176.881 20.9595 177.195 21.1882C177.513 21.4119 177.915 21.5238 178.403 21.5238Z" fill="#101828"/>
</svg>
