<svg width="162" height="32" viewBox="0 0 162 32" fill="none" xmlns="http://www.w3.org/2000/svg">
<rect y="12.8" width="9.42957" height="6.39999" fill="#039855"/>
<rect x="28.2888" y="19.2" width="9.42959" height="6.39999" transform="rotate(180 28.2888 19.2)" fill="#027A48"/>
<path d="M9.42969 12.8L18.8593 6.39996V12.8L9.42969 19.1999V12.8Z" fill="#A6F4C5"/>
<path d="M18.8591 19.2L9.42956 25.6L9.42956 19.2L18.8591 12.8L18.8591 19.2Z" fill="#6CE9A6"/>
<path d="M0 12.8L18.8591 0V6.39999L9.42957 12.8H0Z" fill="#32D583"/>
<path d="M28.2888 19.2L9.42966 32L9.42966 25.6L18.8592 19.2L28.2888 19.2Z" fill="#12B76A"/>
<path d="M50.0977 12.6197C50.038 12.0181 49.782 11.5508 49.3296 11.2177C48.8772 10.8846 48.2632 10.718 47.4876 10.718C46.9606 10.718 46.5156 10.7926 46.1527 10.9418C45.7898 11.0859 45.5114 11.2873 45.3175 11.5458C45.1286 11.8043 45.0341 12.0977 45.0341 12.4258C45.0242 12.6992 45.0813 12.9379 45.2056 13.1417C45.3349 13.3455 45.5114 13.522 45.7351 13.6712C45.9588 13.8153 46.2174 13.9421 46.5107 14.0515C46.804 14.1559 47.1172 14.2454 47.4503 14.32L48.8225 14.6481C49.4887 14.7972 50.1002 14.9961 50.657 15.2447C51.2138 15.4933 51.696 15.799 52.1037 16.1619C52.5114 16.5249 52.8271 16.9524 53.0508 17.4446C53.2795 17.9368 53.3963 18.5011 53.4013 19.1374C53.3963 20.0721 53.1577 20.8825 52.6854 21.5685C52.2181 22.2496 51.5419 22.7791 50.657 23.157C49.777 23.5298 48.7156 23.7163 47.4727 23.7163C46.2397 23.7163 45.1659 23.5273 44.2511 23.1495C43.3413 22.7717 42.6303 22.2124 42.1183 21.4716C41.6112 20.7259 41.3452 19.8036 41.3203 18.7049H44.445C44.4798 19.217 44.6264 19.6445 44.885 19.9876C45.1485 20.3256 45.499 20.5817 45.9365 20.7557C46.3789 20.9247 46.8786 21.0092 47.4354 21.0092C47.9823 21.0092 48.4571 20.9297 48.8598 20.7706C49.2674 20.6115 49.5831 20.3903 49.8068 20.1069C50.0306 19.8235 50.1424 19.4979 50.1424 19.13C50.1424 18.7869 50.0405 18.4986 49.8367 18.2649C49.6378 18.0312 49.3445 17.8324 48.9567 17.6683C48.5739 17.5043 48.1041 17.3551 47.5473 17.2209L45.8843 16.8033C44.5966 16.4901 43.5799 16.0004 42.8342 15.3342C42.0884 14.668 41.7181 13.7706 41.723 12.642C41.7181 11.7173 41.9642 10.9094 42.4613 10.2184C42.9634 9.52734 43.652 8.98793 44.527 8.60014C45.402 8.21236 46.3963 8.01847 47.51 8.01847C48.6435 8.01847 49.6328 8.21236 50.478 8.60014C51.3281 8.98793 51.9894 9.52734 52.4617 10.2184C52.934 10.9094 53.1776 11.7099 53.1925 12.6197H50.0977ZM60.689 23.7237C59.5157 23.7237 58.5065 23.4751 57.6613 22.978C56.8211 22.4759 56.1748 21.7798 55.7224 20.8899C55.275 20 55.0512 18.9759 55.0512 17.8175C55.0512 16.6442 55.2775 15.6151 55.7299 14.7301C56.1873 13.8402 56.836 13.1467 57.6762 12.6495C58.5164 12.1474 59.5157 11.8963 60.6741 11.8963C61.6734 11.8963 62.5484 12.0778 63.2991 12.4407C64.0498 12.8036 64.6439 13.3132 65.0814 13.9695C65.5189 14.6257 65.7601 15.3963 65.8048 16.2812H62.8069C62.7224 15.7095 62.4987 15.2496 62.1358 14.9016C61.7778 14.5487 61.308 14.3722 60.7263 14.3722C60.2341 14.3722 59.8041 14.5064 59.4362 14.7749C59.0733 15.0384 58.7899 15.4237 58.586 15.9308C58.3822 16.4379 58.2803 17.0518 58.2803 17.7727C58.2803 18.5036 58.3797 19.125 58.5786 19.6371C58.7824 20.1491 59.0683 20.5394 59.4362 20.8079C59.8041 21.0763 60.2341 21.2106 60.7263 21.2106C61.0892 21.2106 61.4149 21.136 61.7032 20.9869C61.9966 20.8377 62.2377 20.6214 62.4266 20.3381C62.6205 20.0497 62.7473 19.7042 62.8069 19.3015H65.8048C65.7551 20.1765 65.5164 20.9471 65.0889 21.6133C64.6663 22.2745 64.0821 22.7915 63.3364 23.1644C62.5907 23.5373 61.7082 23.7237 60.689 23.7237ZM71.0156 16.8778V23.5H67.8388V8.22727H70.9262V14.0664H71.0604C71.3189 13.3903 71.7365 12.8608 72.3132 12.478C72.8899 12.0902 73.6133 11.8963 74.4833 11.8963C75.2788 11.8963 75.9723 12.0703 76.5639 12.4183C77.1605 12.7614 77.6229 13.256 77.951 13.9023C78.2841 14.5437 78.4482 15.3118 78.4432 16.2067V23.5H75.2664V16.7734C75.2713 16.0675 75.0924 15.5181 74.7294 15.1254C74.3715 14.7326 73.8693 14.5362 73.223 14.5362C72.7905 14.5362 72.4077 14.6282 72.0746 14.8121C71.7465 14.9961 71.4879 15.2646 71.299 15.6175C71.1151 15.9656 71.0206 16.3857 71.0156 16.8778ZM86.1187 23.7237C84.9603 23.7237 83.9586 23.4776 83.1134 22.9854C82.2732 22.4883 81.6244 21.7972 81.167 20.9123C80.7096 20.0224 80.4809 18.9908 80.4809 17.8175C80.4809 16.6342 80.7096 15.6001 81.167 14.7152C81.6244 13.8253 82.2732 13.1342 83.1134 12.642C83.9586 12.1449 84.9603 11.8963 86.1187 11.8963C87.2771 11.8963 88.2764 12.1449 89.1166 12.642C89.9618 13.1342 90.613 13.8253 91.0704 14.7152C91.5278 15.6001 91.7565 16.6342 91.7565 17.8175C91.7565 18.9908 91.5278 20.0224 91.0704 20.9123C90.613 21.7972 89.9618 22.4883 89.1166 22.9854C88.2764 23.4776 87.2771 23.7237 86.1187 23.7237ZM86.1336 21.2628C86.6606 21.2628 87.1006 21.1136 87.4536 20.8153C87.8066 20.5121 88.0726 20.0994 88.2515 19.5774C88.4355 19.0554 88.5275 18.4613 88.5275 17.7951C88.5275 17.1289 88.4355 16.5348 88.2515 16.0128C88.0726 15.4908 87.8066 15.0781 87.4536 14.7749C87.1006 14.4716 86.6606 14.32 86.1336 14.32C85.6017 14.32 85.1542 14.4716 84.7913 14.7749C84.4333 15.0781 84.1624 15.4908 83.9784 16.0128C83.7995 16.5348 83.71 17.1289 83.71 17.7951C83.71 18.4613 83.7995 19.0554 83.9784 19.5774C84.1624 20.0994 84.4333 20.5121 84.7913 20.8153C85.1542 21.1136 85.6017 21.2628 86.1336 21.2628ZM96.999 8.22727V23.5H93.8222V8.22727H96.999ZM102.81 23.7163C102.079 23.7163 101.428 23.5895 100.856 23.3359C100.285 23.0774 99.8322 22.6971 99.4991 22.195C99.171 21.6879 99.0069 21.0565 99.0069 20.3008C99.0069 19.6644 99.1238 19.13 99.3574 18.6974C99.5911 18.2649 99.9093 17.9169 100.312 17.6534C100.715 17.3899 101.172 17.1911 101.684 17.0568C102.201 16.9226 102.743 16.8281 103.31 16.7734C103.976 16.7038 104.513 16.6392 104.921 16.5795C105.328 16.5149 105.624 16.4205 105.808 16.2962C105.992 16.1719 106.084 15.9879 106.084 15.7443V15.6996C106.084 15.2273 105.935 14.8619 105.637 14.6033C105.343 14.3448 104.926 14.2156 104.384 14.2156C103.812 14.2156 103.357 14.3423 103.019 14.5959C102.681 14.8445 102.457 15.1577 102.348 15.5355L99.4096 15.2969C99.5588 14.6009 99.8521 13.9993 100.29 13.4922C100.727 12.9801 101.291 12.5874 101.982 12.3139C102.678 12.0355 103.484 11.8963 104.399 11.8963C105.035 11.8963 105.644 11.9709 106.226 12.12C106.812 12.2692 107.332 12.5004 107.784 12.8136C108.242 13.1268 108.602 13.5295 108.866 14.0217C109.129 14.5089 109.261 15.093 109.261 15.7741V23.5H106.248V21.9116H106.159C105.975 22.2695 105.729 22.5852 105.42 22.8587C105.112 23.1271 104.742 23.3384 104.309 23.4925C103.877 23.6417 103.377 23.7163 102.81 23.7163ZM103.72 21.5238C104.187 21.5238 104.6 21.4318 104.958 21.2479C105.316 21.0589 105.597 20.8054 105.801 20.4872C106.004 20.169 106.106 19.8086 106.106 19.4059V18.1903C106.007 18.255 105.87 18.3146 105.696 18.3693C105.527 18.419 105.336 18.4663 105.122 18.511C104.908 18.5508 104.694 18.5881 104.481 18.6229C104.267 18.6527 104.073 18.68 103.899 18.7049C103.526 18.7596 103.2 18.8466 102.922 18.9659C102.644 19.0852 102.427 19.2468 102.273 19.4506C102.119 19.6495 102.042 19.8981 102.042 20.1964C102.042 20.6289 102.199 20.9595 102.512 21.1882C102.83 21.4119 103.233 21.5238 103.72 21.5238ZM121.256 15.3118L118.348 15.4908C118.298 15.2422 118.191 15.0185 118.027 14.8196C117.863 14.6158 117.647 14.4542 117.378 14.3349C117.115 14.2106 116.799 14.1484 116.431 14.1484C115.939 14.1484 115.524 14.2528 115.186 14.4616C114.848 14.6655 114.679 14.9389 114.679 15.282C114.679 15.5554 114.788 15.7866 115.007 15.9755C115.226 16.1644 115.601 16.3161 116.133 16.4304L118.206 16.848C119.32 17.0767 120.15 17.4446 120.697 17.9517C121.244 18.4588 121.517 19.125 121.517 19.9503C121.517 20.701 121.296 21.3597 120.853 21.9265C120.416 22.4933 119.814 22.9357 119.049 23.2539C118.288 23.5671 117.411 23.7237 116.416 23.7237C114.9 23.7237 113.692 23.408 112.792 22.7766C111.897 22.1403 111.373 21.2752 111.218 20.1815L114.343 20.0174C114.438 20.4798 114.666 20.8327 115.029 21.0763C115.392 21.315 115.857 21.4343 116.424 21.4343C116.98 21.4343 117.428 21.3274 117.766 21.1136C118.109 20.8949 118.283 20.614 118.288 20.271C118.283 19.9826 118.161 19.7464 117.923 19.5625C117.684 19.3736 117.316 19.2294 116.819 19.13L114.835 18.7347C113.717 18.511 112.884 18.1232 112.337 17.5714C111.795 17.0195 111.524 16.3161 111.524 15.4609C111.524 14.7251 111.723 14.0913 112.121 13.5593C112.523 13.0273 113.088 12.6172 113.814 12.3288C114.544 12.0405 115.4 11.8963 116.379 11.8963C117.826 11.8963 118.964 12.2021 119.794 12.8136C120.63 13.4251 121.117 14.2578 121.256 15.3118ZM129.61 12.0455V14.4318H122.712V12.0455H129.61ZM124.278 9.30114H127.455V19.9801C127.455 20.2734 127.5 20.5021 127.589 20.6662C127.679 20.8253 127.803 20.9371 127.962 21.0018C128.126 21.0664 128.315 21.0987 128.529 21.0987C128.678 21.0987 128.827 21.0863 128.976 21.0614C129.125 21.0316 129.24 21.0092 129.319 20.9943L129.819 23.3583C129.66 23.408 129.436 23.4652 129.148 23.5298C128.859 23.5994 128.509 23.6417 128.096 23.6566C127.331 23.6864 126.66 23.5845 126.083 23.3509C125.511 23.1172 125.066 22.7543 124.748 22.2621C124.43 21.7699 124.273 21.1484 124.278 20.3977V9.30114ZM131.68 23.5V12.0455H134.856V23.5H131.68ZM133.276 10.5689C132.803 10.5689 132.398 10.4123 132.06 10.0991C131.727 9.78089 131.56 9.40057 131.56 8.9581C131.56 8.5206 131.727 8.14524 132.06 7.83203C132.398 7.51385 132.803 7.35476 133.276 7.35476C133.748 7.35476 134.151 7.51385 134.484 7.83203C134.822 8.14524 134.991 8.5206 134.991 8.9581C134.991 9.40057 134.822 9.78089 134.484 10.0991C134.151 10.4123 133.748 10.5689 133.276 10.5689ZM142.577 23.7237C141.403 23.7237 140.394 23.4751 139.549 22.978C138.709 22.4759 138.063 21.7798 137.61 20.8899C137.163 20 136.939 18.9759 136.939 17.8175C136.939 16.6442 137.165 15.6151 137.618 14.7301C138.075 13.8402 138.724 13.1467 139.564 12.6495C140.404 12.1474 141.403 11.8963 142.562 11.8963C143.561 11.8963 144.436 12.0778 145.187 12.4407C145.938 12.8036 146.532 13.3132 146.969 13.9695C147.407 14.6257 147.648 15.3963 147.692 16.2812H144.695C144.61 15.7095 144.386 15.2496 144.023 14.9016C143.666 14.5487 143.196 14.3722 142.614 14.3722C142.122 14.3722 141.692 14.5064 141.324 14.7749C140.961 15.0384 140.678 15.4237 140.474 15.9308C140.27 16.4379 140.168 17.0518 140.168 17.7727C140.168 18.5036 140.267 19.125 140.466 19.6371C140.67 20.1491 140.956 20.5394 141.324 20.8079C141.692 21.0763 142.122 21.2106 142.614 21.2106C142.977 21.2106 143.303 21.136 143.591 20.9869C143.884 20.8377 144.125 20.6214 144.314 20.3381C144.508 20.0497 144.635 19.7042 144.695 19.3015H147.692C147.643 20.1765 147.404 20.9471 146.977 21.6133C146.554 22.2745 145.97 22.7915 145.224 23.1644C144.478 23.5373 143.596 23.7237 142.577 23.7237ZM152.993 23.7163C152.262 23.7163 151.611 23.5895 151.039 23.3359C150.467 23.0774 150.015 22.6971 149.682 22.195C149.354 21.6879 149.19 21.0565 149.19 20.3008C149.19 19.6644 149.306 19.13 149.54 18.6974C149.774 18.2649 150.092 17.9169 150.495 17.6534C150.897 17.3899 151.355 17.1911 151.867 17.0568C152.384 16.9226 152.926 16.8281 153.492 16.7734C154.159 16.7038 154.696 16.6392 155.103 16.5795C155.511 16.5149 155.807 16.4205 155.991 16.2962C156.175 16.1719 156.267 15.9879 156.267 15.7443V15.6996C156.267 15.2273 156.117 14.8619 155.819 14.6033C155.526 14.3448 155.108 14.2156 154.566 14.2156C153.995 14.2156 153.54 14.3423 153.202 14.5959C152.864 14.8445 152.64 15.1577 152.53 15.5355L149.592 15.2969C149.741 14.6009 150.035 13.9993 150.472 13.4922C150.91 12.9801 151.474 12.5874 152.165 12.3139C152.861 12.0355 153.666 11.8963 154.581 11.8963C155.218 11.8963 155.827 11.9709 156.408 12.12C156.995 12.2692 157.514 12.5004 157.967 12.8136C158.424 13.1268 158.785 13.5295 159.048 14.0217C159.312 14.5089 159.443 15.093 159.443 15.7741V23.5H156.431V21.9116H156.341C156.157 22.2695 155.911 22.5852 155.603 22.8587C155.295 23.1271 154.924 23.3384 154.492 23.4925C154.059 23.6417 153.56 23.7163 152.993 23.7163ZM153.903 21.5238C154.37 21.5238 154.783 21.4318 155.141 21.2479C155.499 21.0589 155.779 20.8054 155.983 20.4872C156.187 20.169 156.289 19.8086 156.289 19.4059V18.1903C156.19 18.255 156.053 18.3146 155.879 18.3693C155.71 18.419 155.518 18.4663 155.305 18.511C155.091 18.5508 154.877 18.5881 154.663 18.6229C154.45 18.6527 154.256 18.68 154.082 18.7049C153.709 18.7596 153.383 18.8466 153.105 18.9659C152.826 19.0852 152.61 19.2468 152.456 19.4506C152.302 19.6495 152.225 19.8981 152.225 20.1964C152.225 20.6289 152.381 20.9595 152.695 21.1882C153.013 21.4119 153.415 21.5238 153.903 21.5238Z" fill="#F9FAFB"/>
</svg>
