<svg width="139" height="32" viewBox="0 0 139 32" fill="none" xmlns="http://www.w3.org/2000/svg">
<path d="M24.2589 23.5011C23.581 24.825 22.5907 26.0218 21.3508 27.027C21.8071 24.0888 20.9202 20.7092 15.782 18.7568V18.7611C14.0838 18.2014 12.1291 17.504 10.3081 16.5634C6.92213 14.8154 5.59623 10.6245 7.41502 7.27286C8.08666 6.03295 9.03814 4.90927 10.2133 3.95801C9.75694 6.89619 10.6416 10.2758 15.782 12.2282V12.2239C17.4803 12.7836 19.437 13.481 21.258 14.4216C24.5625 16.1307 25.9552 20.1926 24.2589 23.5011Z" fill="#0F1114"/>
<path d="M17.05 10.3407C19.131 10.3407 20.818 8.65373 20.818 6.5727C20.818 4.49168 19.131 2.80469 17.05 2.80469C14.969 2.80469 13.282 4.49168 13.282 6.5727C13.282 8.65373 14.969 10.3407 17.05 10.3407Z" fill="#FE0000"/>
<path d="M14.2939 27.8759C16.3749 27.8759 18.0619 26.1889 18.0619 24.1079C18.0619 22.0268 16.3749 20.3398 14.2939 20.3398C12.2129 20.3398 10.5259 22.0268 10.5259 24.1079C10.5259 26.1889 12.2129 27.8759 14.2939 27.8759Z" fill="#FE0000"/>
<path d="M133.494 23.8587C132.786 23.8587 132.147 23.7279 131.576 23.4664C131.004 23.2001 130.552 22.8151 130.217 22.3114C129.888 21.8078 129.723 21.1903 129.723 20.459C129.723 19.8295 129.844 19.3113 130.087 18.9045C130.329 18.4977 130.656 18.1757 131.067 17.9384C131.479 17.7011 131.939 17.5219 132.447 17.4008C132.956 17.2797 133.474 17.1877 134.002 17.1248C134.67 17.0473 135.213 16.9843 135.629 16.9359C136.046 16.8826 136.348 16.7979 136.537 16.6816C136.726 16.5654 136.821 16.3765 136.821 16.115V16.0642C136.821 15.4298 136.641 14.9382 136.283 14.5896C135.929 14.2409 135.402 14.0665 134.699 14.0665C133.968 14.0665 133.392 14.2288 132.97 14.5532C132.554 14.8729 132.266 15.2288 132.106 15.6211L130.065 15.1562C130.307 14.4782 130.66 13.9309 131.125 13.5145C131.595 13.0931 132.135 12.788 132.745 12.5992C133.355 12.4054 133.997 12.3086 134.67 12.3086C135.116 12.3086 135.588 12.3619 136.087 12.4684C136.59 12.5701 137.06 12.759 137.496 13.035C137.937 13.3111 138.298 13.7057 138.578 14.2191C138.859 14.7276 139 15.3886 139 16.2022V23.6117H136.879V22.0862H136.791C136.651 22.3671 136.44 22.6431 136.159 22.9143C135.879 23.1855 135.518 23.4107 135.077 23.5899C134.636 23.7691 134.109 23.8587 133.494 23.8587ZM133.966 22.1153C134.566 22.1153 135.08 21.9966 135.506 21.7593C135.937 21.522 136.264 21.2121 136.486 20.8295C136.714 20.4421 136.828 20.028 136.828 19.5873V18.149C136.75 18.2265 136.6 18.2991 136.377 18.3669C136.159 18.4299 135.91 18.4856 135.629 18.534C135.348 18.5776 135.075 18.6188 134.808 18.6575C134.542 18.6914 134.319 18.7205 134.14 18.7447C133.719 18.798 133.334 18.8875 132.985 19.0135C132.641 19.1394 132.365 19.321 132.157 19.5583C131.954 19.7907 131.852 20.1007 131.852 20.4881C131.852 21.0256 132.05 21.4324 132.447 21.7085C132.845 21.9797 133.351 22.1153 133.966 22.1153Z" fill="#0F1114"/>
<path d="M123.851 23.8369C122.771 23.8369 121.842 23.5923 121.062 23.1032C120.287 22.6092 119.691 21.9288 119.275 21.062C118.858 20.1951 118.65 19.2023 118.65 18.0836C118.65 16.9504 118.863 15.9504 119.289 15.0835C119.716 14.2118 120.316 13.5314 121.091 13.0423C121.866 12.5532 122.779 12.3086 123.83 12.3086C124.677 12.3086 125.432 12.466 126.096 12.7808C126.759 13.0907 127.295 13.5266 127.701 14.0883C128.113 14.6501 128.358 15.3063 128.435 16.0569H126.321C126.205 15.5339 125.939 15.0835 125.522 14.7058C125.11 14.328 124.558 14.1392 123.866 14.1392C123.26 14.1392 122.73 14.299 122.275 14.6186C121.825 14.9334 121.474 15.3838 121.222 15.9698C120.97 16.5509 120.844 17.2386 120.844 18.0328C120.844 18.8464 120.967 19.5486 121.214 20.1394C121.461 20.7302 121.81 21.1879 122.26 21.5123C122.716 21.8368 123.251 21.999 123.866 21.999C124.277 21.999 124.65 21.924 124.985 21.7739C125.324 21.6189 125.607 21.3985 125.834 21.1128C126.067 20.8271 126.229 20.4832 126.321 20.0813H128.435C128.358 20.8029 128.123 21.447 127.73 22.0136C127.338 22.5802 126.813 23.0257 126.154 23.3502C125.5 23.6747 124.733 23.8369 123.851 23.8369Z" fill="#0F1114"/>
<path d="M114.568 23.6119V12.4541H116.74V23.6119H114.568ZM115.665 10.7325C115.287 10.7325 114.963 10.6066 114.692 10.3547C114.425 10.0981 114.292 9.79298 114.292 9.43945C114.292 9.08109 114.425 8.77599 114.692 8.52416C114.963 8.26749 115.287 8.13916 115.665 8.13916C116.043 8.13916 116.365 8.26749 116.631 8.52416C116.902 8.77599 117.038 9.08109 117.038 9.43945C117.038 9.79298 116.902 10.0981 116.631 10.3547C116.365 10.6066 116.043 10.7325 115.665 10.7325Z" fill="#0F1114"/>
<path d="M112.678 12.4555V14.1989H106.583V12.4555H112.678ZM108.217 9.78223H110.389V20.3371C110.389 20.7584 110.452 21.0756 110.578 21.2887C110.704 21.497 110.866 21.6398 111.065 21.7173C111.268 21.79 111.489 21.8263 111.726 21.8263C111.9 21.8263 112.053 21.8142 112.184 21.79C112.314 21.7657 112.416 21.7464 112.489 21.7318L112.881 23.5261C112.755 23.5745 112.576 23.623 112.344 23.6714C112.111 23.7247 111.821 23.7537 111.472 23.7586C110.9 23.7683 110.368 23.6666 109.874 23.4535C109.38 23.2404 108.98 22.9111 108.675 22.4655C108.37 22.02 108.217 21.4607 108.217 20.7875V9.78223Z" fill="#0F1114"/>
<path d="M105.374 15.178L103.406 15.5266C103.323 15.2748 103.193 15.0351 103.013 14.8075C102.839 14.5799 102.602 14.3934 102.302 14.2481C102.001 14.1029 101.626 14.0302 101.176 14.0302C100.561 14.0302 100.047 14.1682 99.6356 14.4443C99.224 14.7155 99.0182 15.0666 99.0182 15.4976C99.0182 15.8705 99.1562 16.1707 99.4322 16.3983C99.7083 16.626 100.154 16.8124 100.769 16.9577L102.541 17.3645C103.568 17.6018 104.333 17.9674 104.837 18.4614C105.34 18.9553 105.592 19.597 105.592 20.3864C105.592 21.0547 105.399 21.6504 105.011 22.1734C104.629 22.6916 104.093 23.0984 103.406 23.3938C102.723 23.6892 101.931 23.8369 101.03 23.8369C99.7809 23.8369 98.7615 23.5705 97.9721 23.0378C97.1828 22.5003 96.6985 21.7375 96.5193 20.7496L98.6186 20.43C98.7494 20.9772 99.0182 21.3913 99.425 21.6722C99.8318 21.9482 100.362 22.0862 101.016 22.0862C101.728 22.0862 102.297 21.9385 102.723 21.6431C103.149 21.3428 103.362 20.9772 103.362 20.5462C103.362 20.1975 103.231 19.9045 102.97 19.6672C102.713 19.4299 102.319 19.2508 101.786 19.1297L99.8971 18.7156C98.8559 18.4783 98.0859 18.1006 97.5871 17.5824C97.0932 17.0642 96.8462 16.408 96.8462 15.6138C96.8462 14.9552 97.0302 14.3789 97.3983 13.8849C97.7663 13.391 98.2748 13.006 98.9237 12.7299C99.5727 12.449 100.316 12.3086 101.154 12.3086C102.36 12.3086 103.309 12.5701 104.001 13.0931C104.694 13.6113 105.152 14.3062 105.374 15.178Z" fill="#0F1114"/>
<path d="M89.1258 23.8587C88.4188 23.8587 87.7795 23.7279 87.2081 23.4664C86.6366 23.2001 86.1838 22.8151 85.8497 22.3114C85.5204 21.8078 85.3557 21.1903 85.3557 20.459C85.3557 19.8295 85.4768 19.3113 85.7189 18.9045C85.9611 18.4977 86.288 18.1757 86.6996 17.9384C87.1112 17.7011 87.5713 17.5219 88.0798 17.4008C88.5883 17.2797 89.1065 17.1877 89.6343 17.1248C90.3026 17.0473 90.845 16.9843 91.2615 16.9359C91.678 16.8826 91.9807 16.7979 92.1695 16.6816C92.3584 16.5654 92.4528 16.3765 92.4528 16.115V16.0642C92.4528 15.4298 92.2737 14.9382 91.9153 14.5896C91.5618 14.2409 91.0339 14.0665 90.3317 14.0665C89.6004 14.0665 89.0241 14.2288 88.6028 14.5532C88.1863 14.8729 87.8982 15.2288 87.7384 15.6211L85.6971 15.1562C85.9393 14.4782 86.2928 13.9309 86.7577 13.5145C87.2275 13.0931 87.7674 12.788 88.3776 12.5992C88.9878 12.4054 89.6295 12.3086 90.3026 12.3086C90.7482 12.3086 91.2203 12.3619 91.7192 12.4684C92.2228 12.5701 92.6926 12.759 93.1284 13.035C93.5691 13.3111 93.9299 13.7057 94.2108 14.2191C94.4917 14.7276 94.6321 15.3886 94.6321 16.2022V23.6117H92.511V22.0862H92.4238C92.2833 22.3671 92.0727 22.6431 91.7918 22.9143C91.5109 23.1855 91.1501 23.4107 90.7094 23.5899C90.2687 23.7691 89.7409 23.8587 89.1258 23.8587ZM89.598 22.1153C90.1985 22.1153 90.7119 21.9966 91.138 21.7593C91.569 21.522 91.8959 21.2121 92.1187 20.8295C92.3463 20.4421 92.4601 20.028 92.4601 19.5873V18.149C92.3826 18.2265 92.2325 18.2991 92.0097 18.3669C91.7918 18.4299 91.5424 18.4856 91.2615 18.534C90.9806 18.5776 90.707 18.6188 90.4407 18.6575C90.1743 18.6914 89.9515 18.7205 89.7723 18.7447C89.351 18.798 88.966 18.8875 88.6173 19.0135C88.2735 19.1394 87.9975 19.321 87.7892 19.5583C87.5858 19.7907 87.4841 20.1007 87.4841 20.4881C87.4841 21.0256 87.6827 21.4324 88.0798 21.7085C88.4769 21.9797 88.983 22.1153 89.598 22.1153Z" fill="#0F1114"/>
<path d="M83.4679 8.73486V23.612H81.2959V8.73486H83.4679Z" fill="#0F1114"/>
<path d="M74.1814 23.8369C73.1354 23.8369 72.2225 23.5972 71.4428 23.1177C70.6631 22.6383 70.0577 21.9676 69.6267 21.1055C69.1957 20.2435 68.9802 19.2362 68.9802 18.0836C68.9802 16.9262 69.1957 15.9141 69.6267 15.0472C70.0577 14.1803 70.6631 13.5072 71.4428 13.0278C72.2225 12.5483 73.1354 12.3086 74.1814 12.3086C75.2274 12.3086 76.1403 12.5483 76.92 13.0278C77.6997 13.5072 78.305 14.1803 78.7361 15.0472C79.1671 15.9141 79.3826 16.9262 79.3826 18.0836C79.3826 19.2362 79.1671 20.2435 78.7361 21.1055C78.305 21.9676 77.6997 22.6383 76.92 23.1177C76.1403 23.5972 75.2274 23.8369 74.1814 23.8369ZM74.1887 22.0136C74.8667 22.0136 75.4284 21.8344 75.874 21.476C76.3195 21.1177 76.6488 20.6406 76.8619 20.045C77.0798 19.4493 77.1888 18.7931 77.1888 18.0764C77.1888 17.3645 77.0798 16.7107 76.8619 16.115C76.6488 15.5145 76.3195 15.0327 75.874 14.6695C75.4284 14.3062 74.8667 14.1246 74.1887 14.1246C73.5058 14.1246 72.9392 14.3062 72.4888 14.6695C72.0433 15.0327 71.7116 15.5145 71.4936 16.115C71.2806 16.7107 71.174 17.3645 71.174 18.0764C71.174 18.7931 71.2806 19.4493 71.4936 20.045C71.7116 20.6406 72.0433 21.1177 72.4888 21.476C72.9392 21.8344 73.5058 22.0136 74.1887 22.0136Z" fill="#0F1114"/>
<path d="M59.86 16.987V23.612H57.688V8.73486H59.8309V14.2702H59.9689C60.2305 13.6697 60.63 13.1927 61.1675 12.8391C61.7051 12.4856 62.4073 12.3089 63.2742 12.3089C64.0393 12.3089 64.7076 12.4662 65.2791 12.781C65.8554 13.0958 66.3009 13.5656 66.6157 14.1903C66.9353 14.8102 67.0951 15.585 67.0951 16.5148V23.612H64.9231V16.7763C64.9231 15.9579 64.7125 15.3235 64.2912 14.8731C63.8698 14.4179 63.2839 14.1903 62.5332 14.1903C62.0199 14.1903 61.5598 14.2992 61.153 14.5172C60.7511 14.7351 60.4339 15.0547 60.2014 15.476C59.9738 15.8925 59.86 16.3962 59.86 16.987Z" fill="#0F1114"/>
<path d="M51.2922 23.8369C50.2123 23.8369 49.2825 23.5923 48.5028 23.1032C47.7279 22.6092 47.1323 21.9288 46.7158 21.062C46.2993 20.1951 46.0911 19.2023 46.0911 18.0836C46.0911 16.9504 46.3041 15.9504 46.7303 15.0835C47.1565 14.2118 47.757 13.5314 48.5318 13.0423C49.3067 12.5532 50.2196 12.3086 51.2704 12.3086C52.1179 12.3086 52.8734 12.466 53.5369 12.7808C54.2003 13.0907 54.7355 13.5266 55.1423 14.0883C55.5539 14.6501 55.7985 15.3063 55.876 16.0569H53.7621C53.6458 15.5339 53.3795 15.0835 52.963 14.7058C52.5514 14.328 51.9993 14.1392 51.3068 14.1392C50.7014 14.1392 50.1711 14.299 49.7159 14.6186C49.2655 14.9334 48.9144 15.3838 48.6626 15.9698C48.4108 16.5509 48.2849 17.2386 48.2849 18.0328C48.2849 18.8464 48.4083 19.5486 48.6553 20.1394C48.9023 20.7302 49.251 21.1879 49.7014 21.5123C50.1566 21.8368 50.6917 21.999 51.3068 21.999C51.7184 21.999 52.0913 21.924 52.4255 21.7739C52.7645 21.6189 53.0478 21.3985 53.2754 21.1128C53.5078 20.8271 53.6701 20.4832 53.7621 20.0813H55.876C55.7985 20.8029 55.5636 21.447 55.1713 22.0136C54.7791 22.5802 54.2536 23.0257 53.595 23.3502C52.9412 23.6747 52.1736 23.8369 51.2922 23.8369Z" fill="#0F1114"/>
<path d="M42.2279 12.6443C42.1504 11.9566 41.8308 11.4239 41.269 11.0461C40.7073 10.6635 40.0002 10.4723 39.1479 10.4723C38.5377 10.4723 38.0098 10.5691 37.5643 10.7628C37.1188 10.9517 36.7725 11.2132 36.5255 11.5474C36.2834 11.8767 36.1623 12.252 36.1623 12.6733C36.1623 13.0268 36.2446 13.3319 36.4093 13.5886C36.5788 13.8453 36.7991 14.0608 37.0703 14.2351C37.3464 14.4046 37.6418 14.5475 37.9566 14.6637C38.2713 14.7751 38.574 14.8671 38.8646 14.9397L40.3174 15.3175C40.792 15.4337 41.2787 15.5911 41.7775 15.7897C42.2763 15.9882 42.7388 16.2497 43.165 16.5742C43.5912 16.8987 43.935 17.3006 44.1965 17.7801C44.4629 18.2595 44.596 18.8334 44.596 19.5017C44.596 20.3443 44.3781 21.0925 43.9423 21.7463C43.5113 22.4001 42.8841 22.9158 42.0608 23.2936C41.2424 23.6713 40.252 23.8602 39.0898 23.8602C37.9759 23.8602 37.0122 23.6834 36.1986 23.3299C35.385 22.9764 34.7482 22.4752 34.2881 21.8262C33.8281 21.1724 33.5738 20.3976 33.5254 19.5017H35.7773C35.8209 20.0392 35.9952 20.4872 36.3003 20.8455C36.6103 21.1991 37.0049 21.463 37.4844 21.6373C37.9687 21.8068 38.499 21.8916 39.0752 21.8916C39.7097 21.8916 40.2738 21.7923 40.7678 21.5938C41.2666 21.3904 41.6589 21.1095 41.9446 20.7511C42.2303 20.3879 42.3732 19.9642 42.3732 19.4799C42.3732 19.0392 42.2473 18.6784 41.9955 18.3975C41.7485 18.1166 41.4119 17.8842 40.9857 17.7001C40.5644 17.5161 40.0874 17.3539 39.5547 17.2134L37.7967 16.734C36.6054 16.4095 35.6611 15.9325 34.9637 15.303C34.2712 14.6734 33.9249 13.8404 33.9249 12.8041C33.9249 11.9469 34.1574 11.1987 34.6223 10.5594C35.0872 9.92018 35.7168 9.42379 36.511 9.07027C37.3052 8.7119 38.2011 8.53271 39.1987 8.53271C40.206 8.53271 41.0947 8.70948 41.8647 9.063C42.6396 9.41653 43.2497 9.90323 43.6953 10.5231C44.1408 11.1381 44.3733 11.8452 44.3926 12.6443H42.2279Z" fill="#0F1114"/>
</svg>
