<svg width="161" height="37" viewBox="0 0 161 37" fill="none" xmlns="http://www.w3.org/2000/svg">
<path d="M28.0987 27.0285C27.3135 28.5619 26.1664 29.9482 24.7303 31.1125C25.2589 27.7092 24.2315 23.7947 18.2801 21.5333V21.5383C16.3131 20.89 14.049 20.0822 11.9398 18.9927C8.01792 16.9681 6.48216 12.1138 8.58882 8.23173C9.36676 6.79557 10.4688 5.49403 11.83 4.39221C11.3014 7.79544 12.3261 11.71 18.2801 13.9714V13.9664C20.2472 14.6147 22.5136 15.4224 24.6229 16.512C28.4503 18.4916 30.0635 23.1963 28.0987 27.0285Z" fill="white"/>
<path d="M19.7487 11.7851C22.1591 11.7851 24.1131 9.83108 24.1131 7.42068C24.1131 5.01028 22.1591 3.05627 19.7487 3.05627C17.3383 3.05627 15.3843 5.01028 15.3843 7.42068C15.3843 9.83108 17.3383 11.7851 19.7487 11.7851Z" fill="#FE0000"/>
<path d="M16.5564 32.096C18.9668 32.096 20.9208 30.142 20.9208 27.7316C20.9208 25.3212 18.9668 23.3672 16.5564 23.3672C14.146 23.3672 12.192 25.3212 12.192 27.7316C12.192 30.142 14.146 32.096 16.5564 32.096Z" fill="#FE0000"/>
<path d="M154.622 27.4431C153.804 27.4431 153.063 27.2917 152.401 26.9888C151.739 26.6803 151.215 26.2343 150.828 25.651C150.446 25.0676 150.256 24.3524 150.256 23.5054C150.256 22.7762 150.396 22.176 150.676 21.7048C150.957 21.2336 151.335 20.8606 151.812 20.5858C152.289 20.3109 152.822 20.1034 153.411 19.9631C154 19.8229 154.6 19.7163 155.211 19.6434C155.986 19.5536 156.614 19.4807 157.096 19.4246C157.579 19.3629 157.929 19.2648 158.148 19.1301C158.367 18.9955 158.476 18.7768 158.476 18.4739V18.415C158.476 17.6801 158.269 17.1108 157.853 16.7069C157.444 16.3031 156.833 16.1011 156.019 16.1011C155.172 16.1011 154.505 16.289 154.017 16.6649C153.534 17.0351 153.2 17.4474 153.015 17.9017L150.651 17.3632C150.932 16.5779 151.341 15.9441 151.88 15.4617C152.424 14.9736 153.049 14.6203 153.756 14.4015C154.463 14.1771 155.206 14.0649 155.986 14.0649C156.502 14.0649 157.048 14.1266 157.626 14.25C158.21 14.3678 158.754 14.5866 159.259 14.9063C159.769 15.2261 160.187 15.6832 160.512 16.2778C160.838 16.8668 161 17.6325 161 18.5748V27.1571H158.543V25.3901H158.442C158.28 25.7155 158.036 26.0352 157.71 26.3493C157.385 26.6634 156.967 26.9243 156.457 27.1318C155.946 27.3394 155.335 27.4431 154.622 27.4431ZM155.169 25.4238C155.865 25.4238 156.46 25.2864 156.953 25.0115C157.452 24.7366 157.831 24.3777 158.089 23.9345C158.353 23.4858 158.484 23.0062 158.484 22.4957V20.8298C158.395 20.9195 158.221 21.0037 157.963 21.0822C157.71 21.1551 157.422 21.2196 157.096 21.2757C156.771 21.3262 156.454 21.3739 156.145 21.4187C155.837 21.458 155.579 21.4917 155.371 21.5197C154.883 21.5814 154.437 21.6852 154.033 21.831C153.635 21.9769 153.315 22.1872 153.074 22.4621C152.839 22.7313 152.721 23.0903 152.721 23.5391C152.721 24.1617 152.951 24.6329 153.411 24.9526C153.871 25.2667 154.457 25.4238 155.169 25.4238Z" fill="white"/>
<path d="M143.454 27.4179C142.203 27.4179 141.126 27.1346 140.223 26.5681C139.326 25.9959 138.636 25.2078 138.153 24.2038C137.671 23.1997 137.43 22.0498 137.43 20.754C137.43 19.4415 137.677 18.2831 138.17 17.2791C138.664 16.2694 139.359 15.4813 140.257 14.9148C141.154 14.3482 142.212 14.0649 143.429 14.0649C144.411 14.0649 145.286 14.2472 146.054 14.6118C146.823 14.9708 147.442 15.4757 147.914 16.1264C148.39 16.777 148.674 17.5371 148.763 18.4065H146.315C146.18 17.8007 145.872 17.2791 145.389 16.8415C144.913 16.404 144.273 16.1853 143.471 16.1853C142.77 16.1853 142.156 16.3704 141.628 16.7406C141.107 17.1052 140.7 17.6269 140.408 18.3056C140.117 18.9787 139.971 19.7752 139.971 20.6951C139.971 21.6375 140.114 22.4509 140.4 23.1352C140.686 23.8195 141.09 24.3496 141.612 24.7254C142.139 25.1013 142.759 25.2892 143.471 25.2892C143.948 25.2892 144.38 25.2022 144.767 25.0283C145.159 24.8488 145.488 24.5936 145.751 24.2627C146.02 23.9317 146.208 23.5334 146.315 23.0679H148.763C148.674 23.9037 148.402 24.6497 147.947 25.306C147.493 25.9623 146.884 26.4783 146.121 26.8542C145.364 27.23 144.475 27.4179 143.454 27.4179Z" fill="white"/>
<path d="M132.702 27.1571V14.2332H135.217V27.1571H132.702ZM133.972 12.2391C133.535 12.2391 133.159 12.0933 132.845 11.8016C132.536 11.5043 132.382 11.1509 132.382 10.7414C132.382 10.3264 132.536 9.97298 132.845 9.68129C133.159 9.384 133.535 9.23535 133.972 9.23535C134.41 9.23535 134.783 9.384 135.091 9.68129C135.405 9.97298 135.562 10.3264 135.562 10.7414C135.562 11.1509 135.405 11.5043 135.091 11.8016C134.783 12.0933 134.41 12.2391 133.972 12.2391Z" fill="white"/>
<path d="M130.512 14.2345V16.2539H123.453V14.2345H130.512ZM125.346 11.1382H127.862V23.3637C127.862 23.8517 127.934 24.2191 128.08 24.4659C128.226 24.7071 128.414 24.8726 128.644 24.9623C128.88 25.0465 129.135 25.0885 129.41 25.0885C129.612 25.0885 129.788 25.0745 129.94 25.0465C130.091 25.0184 130.209 24.996 130.293 24.9791L130.748 27.0574C130.602 27.1135 130.394 27.1696 130.125 27.2257C129.856 27.2874 129.519 27.321 129.115 27.3266C128.453 27.3379 127.836 27.2201 127.264 26.9733C126.692 26.7264 126.229 26.345 125.876 25.829C125.522 25.3129 125.346 24.665 125.346 23.8853V11.1382Z" fill="white"/>
<path d="M122.053 17.3885L119.773 17.7923C119.677 17.5006 119.526 17.223 119.318 16.9593C119.116 16.6957 118.841 16.4797 118.494 16.3115C118.146 16.1432 117.711 16.059 117.189 16.059C116.477 16.059 115.883 16.2189 115.406 16.5386C114.929 16.8528 114.691 17.2594 114.691 17.7587C114.691 18.1906 114.85 18.5384 115.17 18.802C115.49 19.0656 116.006 19.2816 116.718 19.4499L118.771 19.9211C119.96 20.1959 120.847 20.6194 121.43 21.1916C122.013 21.7637 122.305 22.5069 122.305 23.4213C122.305 24.1953 122.081 24.8853 121.632 25.4911C121.189 26.0913 120.569 26.5625 119.773 26.9046C118.982 27.2468 118.065 27.4179 117.021 27.4179C115.574 27.4179 114.393 27.1094 113.479 26.4924C112.565 25.8697 112.004 24.9863 111.796 23.842L114.228 23.4717C114.379 24.1056 114.691 24.5852 115.162 24.9105C115.633 25.2303 116.247 25.3901 117.004 25.3901C117.829 25.3901 118.488 25.219 118.982 24.8769C119.475 24.5291 119.722 24.1056 119.722 23.6064C119.722 23.2025 119.571 22.8631 119.268 22.5883C118.97 22.3134 118.513 22.1059 117.896 21.9656L115.709 21.4861C114.503 21.2112 113.611 20.7737 113.033 20.1735C112.461 19.5733 112.175 18.8132 112.175 17.8933C112.175 17.1304 112.388 16.4629 112.814 15.8908C113.241 15.3186 113.83 14.8727 114.581 14.553C115.333 14.2276 116.194 14.0649 117.164 14.0649C118.561 14.0649 119.66 14.3678 120.463 14.9736C121.265 15.5738 121.795 16.3788 122.053 17.3885Z" fill="white"/>
<path d="M103.232 27.4431C102.413 27.4431 101.673 27.2917 101.011 26.9888C100.349 26.6803 99.8248 26.2343 99.4377 25.651C99.0563 25.0676 98.8656 24.3524 98.8656 23.5054C98.8656 22.7762 99.0058 22.176 99.2863 21.7048C99.5668 21.2336 99.9454 20.8606 100.422 20.5858C100.899 20.3109 101.432 20.1034 102.021 19.9631C102.61 19.8229 103.21 19.7163 103.821 19.6434C104.596 19.5536 105.224 19.4807 105.706 19.4246C106.189 19.3629 106.539 19.2648 106.758 19.1301C106.977 18.9955 107.086 18.7768 107.086 18.4739V18.415C107.086 17.6801 106.878 17.1108 106.463 16.7069C106.054 16.3031 105.443 16.1011 104.629 16.1011C103.782 16.1011 103.115 16.289 102.627 16.6649C102.144 17.0351 101.81 17.4474 101.625 17.9017L99.2611 17.3632C99.5415 16.5779 99.951 15.9441 100.489 15.4617C101.034 14.9736 101.659 14.6203 102.366 14.4015C103.073 14.1771 103.816 14.0649 104.596 14.0649C105.112 14.0649 105.658 14.1266 106.236 14.25C106.82 14.3678 107.364 14.5866 107.869 14.9063C108.379 15.2261 108.797 15.6832 109.122 16.2778C109.448 16.8668 109.61 17.6325 109.61 18.5748V27.1571H107.153V25.3901H107.052C106.89 25.7155 106.646 26.0352 106.32 26.3493C105.995 26.6634 105.577 26.9243 105.067 27.1318C104.556 27.3394 103.945 27.4431 103.232 27.4431ZM103.779 25.4238C104.475 25.4238 105.069 25.2864 105.563 25.0115C106.062 24.7366 106.441 24.3777 106.699 23.9345C106.963 23.4858 107.094 23.0062 107.094 22.4957V20.8298C107.005 20.9195 106.831 21.0037 106.573 21.0822C106.32 21.1551 106.031 21.2196 105.706 21.2757C105.381 21.3262 105.064 21.3739 104.755 21.4187C104.447 21.458 104.189 21.4917 103.981 21.5197C103.493 21.5814 103.047 21.6852 102.643 21.831C102.245 21.9769 101.925 22.1872 101.684 22.4621C101.449 22.7313 101.331 23.0903 101.331 23.5391C101.331 24.1617 101.561 24.6329 102.021 24.9526C102.481 25.2667 103.067 25.4238 103.779 25.4238Z" fill="white"/>
<path d="M96.679 9.92493V27.1567H94.1632V9.92493H96.679Z" fill="white"/>
<path d="M85.9227 27.4179C84.7111 27.4179 83.6537 27.1402 82.7506 26.5849C81.8475 26.0296 81.1464 25.2527 80.6472 24.2542C80.1479 23.2558 79.8983 22.0891 79.8983 20.754C79.8983 19.4134 80.1479 18.2411 80.6472 17.237C81.1464 16.2329 81.8475 15.4532 82.7506 14.8979C83.6537 14.3426 84.7111 14.0649 85.9227 14.0649C87.1343 14.0649 88.1917 14.3426 89.0948 14.8979C89.9979 15.4532 90.699 16.2329 91.1983 17.237C91.6975 18.2411 91.9471 19.4134 91.9471 20.754C91.9471 22.0891 91.6975 23.2558 91.1983 24.2542C90.699 25.2527 89.9979 26.0296 89.0948 26.5849C88.1917 27.1402 87.1343 27.4179 85.9227 27.4179ZM85.9311 25.306C86.7164 25.306 87.3671 25.0984 87.8832 24.6834C88.3992 24.2683 88.7807 23.7158 89.0275 23.0258C89.2799 22.3359 89.4061 21.5758 89.4061 20.7456C89.4061 19.9211 89.2799 19.1638 89.0275 18.4739C88.7807 17.7783 88.3992 17.2202 87.8832 16.7995C87.3671 16.3788 86.7164 16.1684 85.9311 16.1684C85.1402 16.1684 84.4839 16.3788 83.9623 16.7995C83.4462 17.2202 83.062 17.7783 82.8095 18.4739C82.5627 19.1638 82.4393 19.9211 82.4393 20.7456C82.4393 21.5758 82.5627 22.3359 82.8095 23.0258C83.062 23.7158 83.4462 24.2683 83.9623 24.6834C84.4839 25.0984 85.1402 25.306 85.9311 25.306Z" fill="white"/>
<path d="M69.3345 19.4832V27.1567H66.8187V9.92493H69.3008V16.3364H69.4607C69.7636 15.6408 70.2264 15.0883 70.849 14.6788C71.4716 14.2693 72.285 14.0646 73.2891 14.0646C74.1753 14.0646 74.9494 14.2469 75.6113 14.6115C76.2788 14.9761 76.7949 15.5202 77.1595 16.2438C77.5297 16.9618 77.7148 17.8593 77.7148 18.9363V27.1567H75.199V19.2392C75.199 18.2912 74.955 17.5564 74.467 17.0347C73.979 16.5074 73.3003 16.2438 72.4308 16.2438C71.8363 16.2438 71.3034 16.37 70.8322 16.6224C70.3666 16.8749 69.9992 17.2451 69.73 17.7331C69.4663 18.2155 69.3345 18.7989 69.3345 19.4832Z" fill="white"/>
<path d="M59.4107 27.4179C58.1599 27.4179 57.0829 27.1346 56.1798 26.5681C55.2823 25.9959 54.5924 25.2078 54.11 24.2038C53.6276 23.1997 53.3864 22.0498 53.3864 20.754C53.3864 19.4415 53.6332 18.2831 54.1268 17.2791C54.6204 16.2694 55.316 15.4813 56.2134 14.9148C57.1109 14.3482 58.1683 14.0649 59.3855 14.0649C60.3671 14.0649 61.2422 14.2472 62.0107 14.6118C62.7791 14.9708 63.399 15.4757 63.8701 16.1264C64.3469 16.777 64.6302 17.5371 64.72 18.4065H62.2715C62.1369 17.8007 61.8284 17.2791 61.346 16.8415C60.8692 16.404 60.2297 16.1853 59.4276 16.1853C58.7264 16.1853 58.1122 16.3704 57.5849 16.7406C57.0633 17.1052 56.6566 17.6269 56.3649 18.3056C56.0732 18.9787 55.9274 19.7752 55.9274 20.6951C55.9274 21.6375 56.0704 22.4509 56.3565 23.1352C56.6426 23.8195 57.0464 24.3496 57.5681 24.7254C58.0954 25.1013 58.7152 25.2892 59.4276 25.2892C59.9044 25.2892 60.3363 25.2022 60.7233 25.0283C61.116 24.8488 61.4441 24.5936 61.7078 24.2627C61.977 23.9317 62.1649 23.5334 62.2715 23.0679H64.72C64.6302 23.9037 64.3582 24.6497 63.9038 25.306C63.4494 25.9623 62.8408 26.4783 62.078 26.8542C61.3207 27.23 60.4316 27.4179 59.4107 27.4179Z" fill="white"/>
<path d="M48.9117 14.4532C48.822 13.6567 48.4517 13.0397 47.8011 12.6021C47.1504 12.159 46.3314 11.9374 45.3442 11.9374C44.6374 11.9374 44.026 12.0496 43.5099 12.274C42.9939 12.4928 42.5928 12.7957 42.3068 13.1827C42.0263 13.5641 41.8861 13.9989 41.8861 14.4869C41.8861 14.8964 41.9814 15.2497 42.1721 15.547C42.3685 15.8443 42.6237 16.0939 42.9378 16.2959C43.2575 16.4922 43.5997 16.6577 43.9643 16.7923C44.3289 16.9213 44.6795 17.0279 45.016 17.112L46.6988 17.5496C47.2486 17.6842 47.8123 17.8665 48.39 18.0965C48.9678 18.3264 49.5035 18.6293 49.9971 19.0052C50.4907 19.381 50.889 19.8466 51.1919 20.4019C51.5004 20.9572 51.6547 21.6219 51.6547 22.396C51.6547 23.372 51.4022 24.2387 50.8974 24.9959C50.3982 25.7532 49.6718 26.3506 48.7182 26.7881C47.7702 27.2256 46.6231 27.4444 45.2769 27.4444C43.9867 27.4444 42.8705 27.2396 41.9281 26.8302C40.9858 26.4207 40.2481 25.8401 39.7153 25.0885C39.1824 24.3312 38.8879 23.4337 38.8318 22.396H41.4401C41.4906 23.0186 41.6925 23.5375 42.0459 23.9526C42.4049 24.3621 42.8621 24.6678 43.4174 24.8697C43.9783 25.066 44.5925 25.1642 45.2601 25.1642C45.9949 25.1642 46.6484 25.0492 47.2205 24.8192C47.7983 24.5836 48.2526 24.2583 48.5836 23.8432C48.9145 23.4225 49.08 22.9317 49.08 22.3708C49.08 21.8603 48.9341 21.4424 48.6425 21.1171C48.3564 20.7917 47.9665 20.5225 47.4729 20.3093C46.9849 20.0962 46.4324 19.9083 45.8154 19.7456L43.7792 19.1903C42.3993 18.8145 41.3055 18.2619 40.4978 17.5327C39.6956 16.8035 39.2946 15.8387 39.2946 14.6383C39.2946 13.6455 39.5638 12.7788 40.1023 12.0384C40.6408 11.298 41.37 10.723 42.2899 10.3136C43.2099 9.89846 44.2476 9.69092 45.4031 9.69092C46.5698 9.69092 47.5991 9.89566 48.491 10.3051C49.3885 10.7146 50.0953 11.2784 50.6113 11.9963C51.1274 12.7087 51.3966 13.5277 51.4191 14.4532H48.9117Z" fill="white"/>
</svg>
