<svg width="191" height="49" viewBox="0 0 191 49" fill="none" xmlns="http://www.w3.org/2000/svg">
<rect y="19.3174" width="10.8497" height="9.59999" fill="#039855"/>
<rect x="32.5491" y="28.917" width="10.8497" height="9.59999" transform="rotate(180 32.5491 28.917)" fill="#027A48"/>
<path d="M10.8496 19.3173L21.6993 9.71729V19.3173L10.8496 28.9173V19.3173Z" fill="#A6F4C5"/>
<path d="M21.6995 28.9171L10.8498 38.5171L10.8498 28.9171L21.6995 19.3171L21.6995 28.9171Z" fill="#6CE9A6"/>
<path d="M0 19.3172L21.6994 0.117188V9.71718L10.8497 19.3172H0Z" fill="#32D583"/>
<path d="M32.5491 28.9172L10.8497 48.1172L10.8497 38.5172L21.6994 28.9172L32.5491 28.9172Z" fill="#12B76A"/>
<path d="M57.3232 20.6825C57.255 19.995 56.9624 19.4609 56.4454 19.0803C55.9283 18.6996 55.2266 18.5092 54.3402 18.5092C53.738 18.5092 53.2294 18.5945 52.8147 18.7649C52.3999 18.9297 52.0817 19.1598 51.8601 19.4553C51.6442 19.7507 51.5363 20.0859 51.5363 20.4609C51.5249 20.7734 51.5902 21.0462 51.7323 21.2791C51.88 21.5121 52.0817 21.7138 52.3374 21.8842C52.5931 22.049 52.8885 22.1939 53.2238 22.3189C53.559 22.4382 53.9169 22.5405 54.2976 22.6257L55.8658 23.0007C56.6272 23.1712 57.326 23.3984 57.9624 23.6825C58.5988 23.9666 59.1499 24.3161 59.6158 24.7308C60.0817 25.1456 60.4425 25.6342 60.6982 26.1967C60.9596 26.7592 61.0931 27.4041 61.0988 28.1314C61.0931 29.1996 60.8204 30.1257 60.2806 30.9098C59.7465 31.6882 58.9738 32.2933 57.9624 32.7251C56.9567 33.1513 55.7437 33.3643 54.3232 33.3643C52.9141 33.3643 51.6868 33.1484 50.6414 32.7166C49.6016 32.2848 48.7891 31.6456 48.2039 30.799C47.6243 29.9467 47.3204 28.8928 47.2919 27.6371H50.863C50.9027 28.2223 51.0704 28.7109 51.3658 29.103C51.6669 29.4893 52.0675 29.782 52.5675 29.9808C53.0732 30.174 53.6442 30.2706 54.2806 30.2706C54.9056 30.2706 55.4482 30.1797 55.9084 29.9979C56.3743 29.8161 56.7351 29.5632 56.9908 29.2393C57.2465 28.9155 57.3743 28.5433 57.3743 28.1229C57.3743 27.7308 57.2579 27.4013 57.0249 27.1342C56.7976 26.8672 56.4624 26.6399 56.0192 26.4524C55.5817 26.2649 55.0448 26.0945 54.4084 25.9411L52.5079 25.4638C51.0363 25.1058 49.8743 24.5462 49.0221 23.7848C48.1698 23.0234 47.7465 21.9979 47.7522 20.7081C47.7465 19.6513 48.0277 18.728 48.5959 17.9382C49.1698 17.1484 49.9567 16.532 50.9567 16.0888C51.9567 15.6456 53.0931 15.424 54.3658 15.424C55.6613 15.424 56.7919 15.6456 57.7579 16.0888C58.7294 16.532 59.4851 17.1484 60.0249 17.9382C60.5647 18.728 60.8431 19.6428 60.8601 20.6825H57.3232ZM69.4276 33.3729C68.0867 33.3729 66.9333 33.0888 65.9674 32.5206C65.0071 31.9467 64.2685 31.1513 63.7515 30.1342C63.2401 29.1172 62.9844 27.9467 62.9844 26.6229C62.9844 25.282 63.2429 24.1058 63.76 23.0945C64.2827 22.0774 65.0242 21.2848 65.9844 20.7166C66.9446 20.1428 68.0867 19.8558 69.4106 19.8558C70.5526 19.8558 71.5526 20.0632 72.4106 20.478C73.2685 20.8928 73.9475 21.4751 74.4475 22.2251C74.9475 22.9751 75.2231 23.8558 75.2742 24.8672H71.8481C71.7515 24.2138 71.4958 23.6882 71.081 23.2905C70.6719 22.8871 70.135 22.6854 69.4702 22.6854C68.9077 22.6854 68.4162 22.8388 67.9958 23.1456C67.581 23.4467 67.2571 23.8871 67.0242 24.4666C66.7912 25.0462 66.6748 25.7479 66.6748 26.5717C66.6748 27.407 66.7884 28.1172 67.0157 28.7024C67.2486 29.2876 67.5753 29.7337 67.9958 30.0405C68.4162 30.3473 68.9077 30.5007 69.4702 30.5007C69.885 30.5007 70.2571 30.4155 70.5867 30.245C70.9219 30.0746 71.1975 29.8274 71.4134 29.5036C71.635 29.174 71.7799 28.7791 71.8481 28.3189H75.2742C75.2174 29.3189 74.9446 30.1996 74.456 30.9609C73.9731 31.7166 73.3054 32.3075 72.4532 32.7337C71.6009 33.1598 70.5924 33.3729 69.4276 33.3729ZM81.2294 25.549V33.1172H77.5988V15.6626H81.1272V22.3359H81.2806C81.576 21.5632 82.0533 20.9581 82.7124 20.5206C83.3715 20.0774 84.1982 19.8558 85.1925 19.8558C86.1016 19.8558 86.8942 20.0547 87.5704 20.4524C88.2522 20.8445 88.7806 21.4098 89.1556 22.1484C89.5363 22.8814 89.7238 23.7592 89.7181 24.782V33.1172H86.0874V25.4297C86.0931 24.6229 85.8885 23.995 85.4738 23.5462C85.0647 23.0973 84.4908 22.8729 83.7522 22.8729C83.2579 22.8729 82.8204 22.978 82.4397 23.1882C82.0647 23.3984 81.7692 23.7053 81.5533 24.1087C81.3431 24.5064 81.2351 24.9865 81.2294 25.549ZM98.4901 33.3729C97.1662 33.3729 96.0214 33.0916 95.0554 32.5291C94.0952 31.9609 93.3537 31.1712 92.831 30.1598C92.3083 29.1428 92.0469 27.9638 92.0469 26.6229C92.0469 25.2706 92.3083 24.0888 92.831 23.0774C93.3537 22.0604 94.0952 21.2706 95.0554 20.7081C96.0214 20.1399 97.1662 19.8558 98.4901 19.8558C99.814 19.8558 100.956 20.1399 101.916 20.7081C102.882 21.2706 103.626 22.0604 104.149 23.0774C104.672 24.0888 104.933 25.2706 104.933 26.6229C104.933 27.9638 104.672 29.1428 104.149 30.1598C103.626 31.1712 102.882 31.9609 101.916 32.5291C100.956 33.0916 99.814 33.3729 98.4901 33.3729ZM98.5071 30.5604C99.1094 30.5604 99.6123 30.3899 100.016 30.049C100.419 29.7024 100.723 29.2308 100.928 28.6342C101.138 28.0376 101.243 27.3587 101.243 26.5973C101.243 25.8359 101.138 25.157 100.928 24.5604C100.723 23.9638 100.419 23.4922 100.016 23.1456C99.6123 22.799 99.1094 22.6257 98.5071 22.6257C97.8992 22.6257 97.3878 22.799 96.9731 23.1456C96.564 23.4922 96.2543 23.9638 96.0441 24.5604C95.8395 25.157 95.7373 25.8359 95.7373 26.5973C95.7373 27.3587 95.8395 28.0376 96.0441 28.6342C96.2543 29.2308 96.564 29.7024 96.9731 30.049C97.3878 30.3899 97.8992 30.5604 98.5071 30.5604ZM110.925 15.6626V33.1172H107.294V15.6626H110.925ZM117.566 33.3643C116.731 33.3643 115.987 33.2195 115.333 32.9297C114.68 32.6342 114.163 32.1996 113.782 31.6257C113.407 31.0462 113.22 30.3246 113.22 29.4609C113.22 28.7337 113.353 28.1229 113.62 27.6286C113.887 27.1342 114.251 26.7365 114.711 26.4354C115.171 26.1342 115.694 25.907 116.279 25.7536C116.87 25.6001 117.489 25.4922 118.137 25.4297C118.898 25.3501 119.512 25.2763 119.978 25.2081C120.444 25.1342 120.782 25.0263 120.992 24.8842C121.202 24.7422 121.308 24.532 121.308 24.2536V24.2024C121.308 23.6626 121.137 23.245 120.796 22.9496C120.461 22.6541 119.984 22.5064 119.364 22.5064C118.711 22.5064 118.191 22.6513 117.805 22.9411C117.418 23.2251 117.163 23.5831 117.038 24.0149L113.68 23.7422C113.85 22.9467 114.185 22.2592 114.685 21.6797C115.185 21.0945 115.83 20.6456 116.62 20.3331C117.416 20.0149 118.336 19.8558 119.381 19.8558C120.109 19.8558 120.805 19.9411 121.47 20.1115C122.14 20.282 122.734 20.5462 123.251 20.9041C123.773 21.2621 124.185 21.7223 124.487 22.2848C124.788 22.8416 124.938 23.5092 124.938 24.2876V33.1172H121.495V31.3018H121.393C121.183 31.7109 120.901 32.0717 120.549 32.3842C120.197 32.6911 119.773 32.9325 119.279 33.1087C118.785 33.2791 118.214 33.3643 117.566 33.3643ZM118.606 30.8587C119.14 30.8587 119.612 30.7536 120.021 30.5433C120.43 30.3274 120.751 30.0376 120.984 29.674C121.217 29.3104 121.333 28.8984 121.333 28.4382V27.049C121.22 27.1229 121.063 27.1911 120.864 27.2536C120.671 27.3104 120.452 27.3643 120.208 27.4155C119.964 27.4609 119.72 27.5036 119.475 27.5433C119.231 27.5774 119.009 27.6087 118.81 27.6371C118.384 27.6996 118.012 27.799 117.694 27.9354C117.376 28.0717 117.129 28.2564 116.952 28.4893C116.776 28.7166 116.688 29.0007 116.688 29.3416C116.688 29.8359 116.867 30.2138 117.225 30.4751C117.589 30.7308 118.049 30.8587 118.606 30.8587ZM138.647 23.7592L135.323 23.9638C135.266 23.6797 135.144 23.424 134.957 23.1967C134.769 22.9638 134.522 22.7791 134.215 22.6428C133.914 22.5007 133.553 22.4297 133.133 22.4297C132.57 22.4297 132.096 22.549 131.71 22.7876C131.323 23.0206 131.13 23.3331 131.13 23.7251C131.13 24.0376 131.255 24.3018 131.505 24.5178C131.755 24.7337 132.184 24.907 132.792 25.0376L135.161 25.5149C136.434 25.7763 137.383 26.1967 138.008 26.7763C138.633 27.3558 138.945 28.1172 138.945 29.0604C138.945 29.9183 138.693 30.6712 138.187 31.3189C137.687 31.9666 136.999 32.4723 136.124 32.8359C135.255 33.1939 134.252 33.3729 133.116 33.3729C131.383 33.3729 130.002 33.0121 128.974 32.2905C127.951 31.5632 127.352 30.5746 127.175 29.3246L130.746 29.1371C130.854 29.6655 131.116 30.0689 131.531 30.3473C131.945 30.62 132.477 30.7564 133.124 30.7564C133.761 30.7564 134.272 30.6342 134.658 30.3899C135.05 30.1399 135.249 29.8189 135.255 29.4268C135.249 29.0973 135.11 28.8274 134.837 28.6172C134.565 28.4013 134.144 28.2365 133.576 28.1229L131.309 27.6712C130.031 27.4155 129.079 26.9723 128.454 26.3416C127.835 25.7109 127.525 24.907 127.525 23.9297C127.525 23.0888 127.752 22.3643 128.207 21.7564C128.667 21.1484 129.312 20.6797 130.141 20.3501C130.977 20.0206 131.954 19.8558 133.073 19.8558C134.727 19.8558 136.028 20.2053 136.977 20.9041C137.931 21.603 138.488 22.5547 138.647 23.7592ZM148.195 20.0263V22.7536H140.311V20.0263H148.195ZM142.101 16.8899H145.732V29.0945C145.732 29.4297 145.783 29.6911 145.885 29.8786C145.987 30.0604 146.129 30.1882 146.311 30.2621C146.499 30.3359 146.715 30.3729 146.959 30.3729C147.129 30.3729 147.3 30.3587 147.47 30.3303C147.641 30.2962 147.771 30.2706 147.862 30.2536L148.433 32.9553C148.251 33.0121 147.996 33.0774 147.666 33.1513C147.337 33.2308 146.936 33.2791 146.465 33.2962C145.59 33.3303 144.822 33.2138 144.163 32.9467C143.51 32.6797 143.001 32.2649 142.638 31.7024C142.274 31.1399 142.095 30.4297 142.101 29.5717V16.8899ZM150.56 33.1172V20.0263H154.19V33.1172H150.56ZM152.384 18.3388C151.844 18.3388 151.381 18.1598 150.994 17.8018C150.614 17.4382 150.423 17.0036 150.423 16.4979C150.423 15.9979 150.614 15.5689 150.994 15.2109C151.381 14.8473 151.844 14.6655 152.384 14.6655C152.923 14.6655 153.384 14.8473 153.764 15.2109C154.151 15.5689 154.344 15.9979 154.344 16.4979C154.344 17.0036 154.151 17.4382 153.764 17.8018C153.384 18.1598 152.923 18.3388 152.384 18.3388ZM163.014 33.3729C161.673 33.3729 160.519 33.0888 159.553 32.5206C158.593 31.9467 157.854 31.1513 157.337 30.1342C156.826 29.1172 156.57 27.9467 156.57 26.6229C156.57 25.282 156.829 24.1058 157.346 23.0945C157.869 22.0774 158.61 21.2848 159.57 20.7166C160.531 20.1428 161.673 19.8558 162.996 19.8558C164.139 19.8558 165.139 20.0632 165.996 20.478C166.854 20.8928 167.533 21.4751 168.033 22.2251C168.533 22.9751 168.809 23.8558 168.86 24.8672H165.434C165.337 24.2138 165.082 23.6882 164.667 23.2905C164.258 22.8871 163.721 22.6854 163.056 22.6854C162.494 22.6854 162.002 22.8388 161.582 23.1456C161.167 23.4467 160.843 23.8871 160.61 24.4666C160.377 25.0462 160.261 25.7479 160.261 26.5717C160.261 27.407 160.374 28.1172 160.602 28.7024C160.835 29.2876 161.161 29.7337 161.582 30.0405C162.002 30.3473 162.494 30.5007 163.056 30.5007C163.471 30.5007 163.843 30.4155 164.173 30.245C164.508 30.0746 164.783 29.8274 164.999 29.5036C165.221 29.174 165.366 28.7791 165.434 28.3189H168.86C168.803 29.3189 168.531 30.1996 168.042 30.9609C167.559 31.7166 166.891 32.3075 166.039 32.7337C165.187 33.1598 164.178 33.3729 163.014 33.3729ZM174.918 33.3643C174.082 33.3643 173.338 33.2195 172.685 32.9297C172.031 32.6342 171.514 32.1996 171.134 31.6257C170.759 31.0462 170.571 30.3246 170.571 29.4609C170.571 28.7337 170.705 28.1229 170.972 27.6286C171.239 27.1342 171.602 26.7365 172.063 26.4354C172.523 26.1342 173.045 25.907 173.631 25.7536C174.222 25.6001 174.841 25.4922 175.489 25.4297C176.25 25.3501 176.864 25.2763 177.33 25.2081C177.795 25.1342 178.134 25.0263 178.344 24.8842C178.554 24.7422 178.659 24.532 178.659 24.2536V24.2024C178.659 23.6626 178.489 23.245 178.148 22.9496C177.813 22.6541 177.335 22.5064 176.716 22.5064C176.063 22.5064 175.543 22.6513 175.156 22.9411C174.77 23.2251 174.514 23.5831 174.389 24.0149L171.031 23.7422C171.202 22.9467 171.537 22.2592 172.037 21.6797C172.537 21.0945 173.182 20.6456 173.972 20.3331C174.767 20.0149 175.688 19.8558 176.733 19.8558C177.46 19.8558 178.156 19.9411 178.821 20.1115C179.492 20.282 180.085 20.5462 180.602 20.9041C181.125 21.2621 181.537 21.7223 181.838 22.2848C182.139 22.8416 182.29 23.5092 182.29 24.2876V33.1172H178.847V31.3018H178.744C178.534 31.7109 178.253 32.0717 177.901 32.3842C177.548 32.6911 177.125 32.9325 176.631 33.1087C176.136 33.2791 175.565 33.3643 174.918 33.3643ZM175.957 30.8587C176.492 30.8587 176.963 30.7536 177.372 30.5433C177.781 30.3274 178.102 30.0376 178.335 29.674C178.568 29.3104 178.685 28.8984 178.685 28.4382V27.049C178.571 27.1229 178.415 27.1911 178.216 27.2536C178.023 27.3104 177.804 27.3643 177.56 27.4155C177.315 27.4609 177.071 27.5036 176.827 27.5433C176.582 27.5774 176.361 27.6087 176.162 27.6371C175.736 27.6996 175.364 27.799 175.045 27.9354C174.727 28.0717 174.48 28.2564 174.304 28.4893C174.128 28.7166 174.04 29.0007 174.04 29.3416C174.04 29.8359 174.219 30.2138 174.577 30.4751C174.94 30.7308 175.401 30.8587 175.957 30.8587Z" fill="black"/>
</svg>
