<svg width="304" height="304" viewBox="0 0 304 304" fill="none" xmlns="http://www.w3.org/2000/svg">
<path d="M266 145.667C266.044 162.385 262.138 178.878 254.6 193.8C245.663 211.682 231.924 226.723 214.921 237.238C197.919 247.753 178.324 253.326 158.333 253.334C141.615 253.377 125.123 249.471 110.2 241.934L38 266L62.0667 193.8C54.5291 178.878 50.6231 162.385 50.6667 145.667C50.6744 125.676 56.2478 106.082 66.7624 89.0793C77.2771 72.0768 92.3179 58.3375 110.2 49.4004C125.123 41.8628 141.615 37.9568 158.333 38.0004H164.667C191.068 39.4569 216.005 50.6007 234.702 69.2979C253.4 87.9951 264.543 112.932 266 139.334V145.667Z" stroke="white" stroke-opacity="0.2" stroke-width="20" stroke-linecap="round" stroke-linejoin="round"/>
</svg>
