<svg width="37" height="76" viewBox="0 0 37 76" fill="none" xmlns="http://www.w3.org/2000/svg">
<rect width="37" height="76" fill="black" fill-opacity="0.01"/>
<path fill-rule="evenodd" clip-rule="evenodd" d="M14.5 44C15.6046 44 16.5 44.8954 16.5 46C16.5 47.1046 15.6046 48 14.5 48C13.3954 48 12.5 47.1046 12.5 46C12.5 44.8954 13.3954 44 14.5 44ZM22.5 44C23.6046 44 24.5 44.8954 24.5 46C24.5 47.1046 23.6046 48 22.5 48C21.3954 48 20.5 47.1046 20.5 46C20.5 44.8954 21.3954 44 22.5 44ZM14.5 36C15.6046 36 16.5 36.8954 16.5 38C16.5 39.1046 15.6046 40 14.5 40C13.3954 40 12.5 39.1046 12.5 38C12.5 36.8954 13.3954 36 14.5 36ZM22.5 36C23.6046 36 24.5 36.8954 24.5 38C24.5 39.1046 23.6046 40 22.5 40C21.3954 40 20.5 39.1046 20.5 38C20.5 36.8954 21.3954 36 22.5 36ZM14.5 28C15.6046 28 16.5 28.8954 16.5 30C16.5 31.1046 15.6046 32 14.5 32C13.3954 32 12.5 31.1046 12.5 30C12.5 28.8954 13.3954 28 14.5 28ZM22.5 28C23.6046 28 24.5 28.8954 24.5 30C24.5 31.1046 23.6046 32 22.5 32C21.3954 32 20.5 31.1046 20.5 30C20.5 28.8954 21.3954 28 22.5 28Z" fill="#9FA6AD"/>
</svg>
