<svg width="93" height="25" viewBox="0 0 93 25" fill="none" xmlns="http://www.w3.org/2000/svg">
<rect x="0.5" y="0.5" width="92" height="24" rx="3.5" fill="#EEFFF2"/>
<rect x="0.5" y="0.5" width="92" height="24" rx="3.5" stroke="#078E35"/>
<path d="M17.541 7.92V18H16.708C16.582 18 16.4747 17.979 16.386 17.937C16.2973 17.8903 16.2133 17.8157 16.134 17.713L10.597 10.601C10.611 10.7363 10.6203 10.8717 10.625 11.007C10.6343 11.1377 10.639 11.259 10.639 11.371V18H9.197V7.92H10.051C10.121 7.92 10.1793 7.92467 10.226 7.934C10.2773 7.93867 10.324 7.95033 10.366 7.969C10.408 7.98767 10.4477 8.01567 10.485 8.053C10.5223 8.09033 10.562 8.137 10.604 8.193L16.148 15.312C16.134 15.1673 16.1223 15.025 16.113 14.885C16.1083 14.745 16.106 14.6143 16.106 14.493V7.92H17.541ZM21.5881 18H19.9431V7.92H21.5881V18ZM32.3203 7.92V18H31.4873C31.3613 18 31.254 17.979 31.1653 17.937C31.0766 17.8903 30.9926 17.8157 30.9133 17.713L25.3763 10.601C25.3903 10.7363 25.3996 10.8717 25.4043 11.007C25.4136 11.1377 25.4183 11.259 25.4183 11.371V18H23.9763V7.92H24.8303C24.9003 7.92 24.9586 7.92467 25.0053 7.934C25.0566 7.93867 25.1033 7.95033 25.1453 7.969C25.1873 7.98767 25.227 8.01567 25.2643 8.053C25.3016 8.09033 25.3413 8.137 25.3833 8.193L30.9273 15.312C30.9133 15.1673 30.9016 15.025 30.8923 14.885C30.8876 14.745 30.8853 14.6143 30.8853 14.493V7.92H32.3203ZM46.1242 7.92L42.0362 18H40.5592L36.4712 7.92H37.7802C37.9249 7.92 38.0415 7.95733 38.1302 8.032C38.2189 8.102 38.2865 8.19067 38.3332 8.298L40.9302 14.871C41.0702 15.2397 41.1985 15.6643 41.3152 16.145C41.3665 15.907 41.4202 15.6807 41.4762 15.466C41.5369 15.2513 41.6022 15.053 41.6722 14.871L44.2622 8.298C44.2995 8.20467 44.3649 8.11833 44.4582 8.039C44.5515 7.95967 44.6682 7.92 44.8082 7.92H46.1242ZM50.6234 13.625C50.6234 13.373 50.5861 13.1397 50.5114 12.925C50.4414 12.7057 50.3364 12.5167 50.1964 12.358C50.0564 12.1947 49.8814 12.0687 49.6714 11.98C49.4661 11.8867 49.2281 11.84 48.9574 11.84C48.4114 11.84 47.9821 11.9963 47.6694 12.309C47.3568 12.6217 47.1584 13.0603 47.0744 13.625H50.6234ZM47.0324 14.549C47.0511 14.955 47.1141 15.3073 47.2214 15.606C47.3288 15.9 47.4711 16.145 47.6484 16.341C47.8304 16.537 48.0451 16.684 48.2924 16.782C48.5444 16.8753 48.8244 16.922 49.1324 16.922C49.4264 16.922 49.6808 16.8893 49.8954 16.824C50.1101 16.754 50.2968 16.6793 50.4554 16.6C50.6141 16.516 50.7494 16.4413 50.8614 16.376C50.9734 16.306 51.0761 16.271 51.1694 16.271C51.2908 16.271 51.3841 16.3177 51.4494 16.411L51.8764 16.964C51.6991 17.174 51.4984 17.3513 51.2744 17.496C51.0504 17.6407 50.8124 17.7597 50.5604 17.853C50.3084 17.9417 50.0494 18.0047 49.7834 18.042C49.5174 18.084 49.2584 18.105 49.0064 18.105C48.5118 18.105 48.0521 18.0233 47.6274 17.86C47.2074 17.692 46.8411 17.447 46.5284 17.125C46.2204 16.803 45.9778 16.404 45.8004 15.928C45.6278 15.452 45.5414 14.9037 45.5414 14.283C45.5414 13.7883 45.6184 13.3263 45.7724 12.897C45.9311 12.4677 46.1551 12.0943 46.4444 11.777C46.7384 11.4597 47.0931 11.21 47.5084 11.028C47.9284 10.8413 48.4021 10.748 48.9294 10.748C49.3681 10.748 49.7741 10.8203 50.1474 10.965C50.5208 11.105 50.8428 11.3127 51.1134 11.588C51.3841 11.8633 51.5941 12.2017 51.7434 12.603C51.8974 12.9997 51.9744 13.4523 51.9744 13.961C51.9744 14.1943 51.9488 14.3507 51.8974 14.43C51.8461 14.5093 51.7528 14.549 51.6174 14.549H47.0324ZM54.7989 12.183C55.0229 11.7303 55.2936 11.3757 55.6109 11.119C55.9283 10.8577 56.3086 10.727 56.7519 10.727C56.9059 10.727 57.0506 10.7457 57.1859 10.783C57.3213 10.8157 57.4426 10.867 57.5499 10.937L57.4449 12.071C57.4263 12.1503 57.3959 12.2063 57.3539 12.239C57.3166 12.267 57.2653 12.281 57.1999 12.281C57.1299 12.281 57.0296 12.2693 56.8989 12.246C56.7683 12.218 56.6306 12.204 56.4859 12.204C56.2759 12.204 56.0893 12.2343 55.9259 12.295C55.7673 12.3557 55.6226 12.4443 55.4919 12.561C55.3659 12.6777 55.2539 12.82 55.1559 12.988C55.0579 13.156 54.9669 13.3473 54.8829 13.562V18H53.3779V10.86H54.2529C54.4116 10.86 54.5213 10.8903 54.5819 10.951C54.6426 11.007 54.6846 11.1073 54.7079 11.252L54.7989 12.183ZM60.1139 10.86V18H58.6089V10.86H60.1139ZM60.3659 8.704C60.3659 8.83933 60.3379 8.96767 60.2819 9.089C60.2306 9.21033 60.1582 9.31767 60.0649 9.411C59.9716 9.49967 59.8619 9.572 59.7359 9.628C59.6146 9.67933 59.4839 9.705 59.3439 9.705C59.2086 9.705 59.0802 9.67933 58.9589 9.628C58.8422 9.572 58.7396 9.49967 58.6509 9.411C58.5622 9.31767 58.4899 9.21033 58.4339 9.089C58.3826 8.96767 58.3569 8.83933 58.3569 8.704C58.3569 8.564 58.3826 8.43333 58.4339 8.312C58.4899 8.19067 58.5622 8.08567 58.6509 7.997C58.7396 7.90367 58.8422 7.83133 58.9589 7.78C59.0802 7.724 59.2086 7.696 59.3439 7.696C59.4839 7.696 59.6146 7.724 59.7359 7.78C59.8619 7.83133 59.9716 7.90367 60.0649 7.997C60.1582 8.08567 60.2306 8.19067 60.2819 8.312C60.3379 8.43333 60.3659 8.564 60.3659 8.704ZM62.4949 18V12.057L61.7949 11.959C61.6782 11.9357 61.5826 11.8937 61.5079 11.833C61.4379 11.7723 61.4029 11.686 61.4029 11.574V10.958H62.4949V10.657C62.4949 10.2183 62.5649 9.81467 62.7049 9.446C62.8449 9.07733 63.0572 8.75767 63.3419 8.487C63.6266 8.21633 63.9812 8.00633 64.4059 7.857C64.8352 7.703 65.3369 7.626 65.9109 7.626C66.0976 7.626 66.2889 7.63767 66.4849 7.661C66.6856 7.68433 66.8559 7.71933 66.9959 7.766L66.9469 8.55C66.9376 8.648 66.8792 8.704 66.7719 8.718C66.6646 8.72733 66.5222 8.732 66.3449 8.732C65.9109 8.732 65.5422 8.774 65.2389 8.858C64.9356 8.93733 64.6882 9.061 64.4969 9.229C64.3056 9.39233 64.1656 9.59767 64.0769 9.845C63.9929 10.0877 63.9509 10.3723 63.9509 10.699V10.958H68.3259V18H66.8209V12.043H63.9999V18H62.4949ZM74.9184 13.625C74.9184 13.373 74.881 13.1397 74.8064 12.925C74.7364 12.7057 74.6314 12.5167 74.4914 12.358C74.3514 12.1947 74.1764 12.0687 73.9664 11.98C73.761 11.8867 73.523 11.84 73.2524 11.84C72.7064 11.84 72.277 11.9963 71.9644 12.309C71.6517 12.6217 71.4534 13.0603 71.3694 13.625H74.9184ZM71.3274 14.549C71.346 14.955 71.409 15.3073 71.5164 15.606C71.6237 15.9 71.766 16.145 71.9434 16.341C72.1254 16.537 72.34 16.684 72.5874 16.782C72.8394 16.8753 73.1194 16.922 73.4274 16.922C73.7214 16.922 73.9757 16.8893 74.1904 16.824C74.405 16.754 74.5917 16.6793 74.7504 16.6C74.909 16.516 75.0444 16.4413 75.1564 16.376C75.2684 16.306 75.371 16.271 75.4644 16.271C75.5857 16.271 75.679 16.3177 75.7444 16.411L76.1714 16.964C75.994 17.174 75.7934 17.3513 75.5694 17.496C75.3454 17.6407 75.1074 17.7597 74.8554 17.853C74.6034 17.9417 74.3444 18.0047 74.0784 18.042C73.8124 18.084 73.5534 18.105 73.3014 18.105C72.8067 18.105 72.347 18.0233 71.9224 17.86C71.5024 17.692 71.136 17.447 70.8234 17.125C70.5154 16.803 70.2727 16.404 70.0954 15.928C69.9227 15.452 69.8364 14.9037 69.8364 14.283C69.8364 13.7883 69.9134 13.3263 70.0674 12.897C70.226 12.4677 70.45 12.0943 70.7394 11.777C71.0334 11.4597 71.388 11.21 71.8034 11.028C72.2234 10.8413 72.697 10.748 73.2244 10.748C73.663 10.748 74.069 10.8203 74.4424 10.965C74.8157 11.105 75.1377 11.3127 75.4084 11.588C75.679 11.8633 75.889 12.2017 76.0384 12.603C76.1924 12.9997 76.2694 13.4523 76.2694 13.961C76.2694 14.1943 76.2437 14.3507 76.1924 14.43C76.141 14.5093 76.0477 14.549 75.9124 14.549H71.3274ZM82.2299 12.617C82.0199 12.3463 81.7889 12.1573 81.5369 12.05C81.2849 11.9427 81.0119 11.889 80.7179 11.889C80.1299 11.889 79.6702 12.106 79.3389 12.54C79.0075 12.9693 78.8419 13.6063 78.8419 14.451C78.8419 14.8897 78.8792 15.2653 78.9539 15.578C79.0285 15.886 79.1359 16.138 79.2759 16.334C79.4159 16.53 79.5862 16.6723 79.7869 16.761C79.9875 16.8497 80.2139 16.894 80.4659 16.894C80.8485 16.894 81.1775 16.8123 81.4529 16.649C81.7329 16.481 81.9919 16.2453 82.2299 15.942V12.617ZM83.7349 7.64V18H82.8249C82.6242 18 82.4959 17.9043 82.4399 17.713L82.3069 16.936C82.0082 17.286 81.6675 17.5683 81.2849 17.783C80.9069 17.9977 80.4659 18.105 79.9619 18.105C79.5605 18.105 79.1965 18.0257 78.8699 17.867C78.5432 17.7037 78.2632 17.468 78.0299 17.16C77.7965 16.852 77.6145 16.4717 77.4839 16.019C77.3579 15.5617 77.2949 15.039 77.2949 14.451C77.2949 13.919 77.3649 13.4267 77.5049 12.974C77.6495 12.5213 77.8549 12.1293 78.1209 11.798C78.3869 11.462 78.7089 11.2007 79.0869 11.014C79.4695 10.8227 79.8965 10.727 80.3679 10.727C80.7879 10.727 81.1449 10.7947 81.4389 10.93C81.7329 11.0607 81.9965 11.245 82.2299 11.483V7.64H83.7349Z" fill="#078E35"/>
</svg>
