<svg width="348" height="348" viewBox="0 0 348 348" fill="none" xmlns="http://www.w3.org/2000/svg">
<g clip-path="url(#clip0_1525_14611)">
<path d="M308.874 215.681L314.835 253.21C315.402 256.692 315.236 260.254 314.347 263.668C313.459 267.082 311.867 270.272 309.674 273.035C307.48 275.798 304.734 278.073 301.611 279.713C298.488 281.354 295.057 282.324 291.537 282.561C252.378 284.492 213.311 277.211 177.477 261.303C144.201 246.896 114.504 225.34 90.4967 198.165C64.1714 168.887 45.1129 133.819 34.8652 95.8037C34.0032 92.394 33.8606 88.8421 34.4464 85.3742C35.0323 81.9063 36.3339 78.5984 38.2682 75.6611C40.2025 72.7238 42.7273 70.2215 45.6817 68.3134C48.6362 66.4053 51.9555 65.1333 55.4285 64.5783L92.9581 58.6177C99.0197 57.5937 105.247 58.8088 110.479 62.0365C115.711 65.2642 119.591 70.2843 121.395 76.161C124.887 87.9197 129.697 99.2457 135.735 109.923C138.13 114.133 139.267 118.942 139.012 123.778C138.757 128.615 137.121 133.277 134.298 137.213L120.934 155.624C143.717 184.114 173.767 205.927 207.914 218.762L221.279 200.351C224.146 196.447 228.072 193.447 232.591 191.706C237.111 189.966 242.035 189.557 246.78 190.529C258.803 192.962 271.062 194.026 283.324 193.703C289.537 193.595 295.573 195.774 300.284 199.827C304.995 203.879 308.052 209.521 308.874 215.681Z" stroke="white" stroke-opacity="0.2" stroke-width="20" stroke-linecap="round" stroke-linejoin="round"/>
</g>
<defs>
<clipPath id="clip0_1525_14611">
<rect width="304" height="304" fill="white" transform="translate(0.0390625 47.7246) rotate(-9.02456)"/>
</clipPath>
</defs>
</svg>
