<svg width="48" height="48" viewBox="0 0 48 48" fill="none" xmlns="http://www.w3.org/2000/svg">
<path d="M36.7712 35.3682C35.7436 37.3748 34.2425 39.1889 32.3631 40.7125C33.0548 36.259 31.7104 31.1363 23.9222 28.1769V28.1834C21.3481 27.3351 18.3853 26.278 15.625 24.8522C10.4928 22.2028 8.48306 15.8504 11.2399 10.7701C12.2579 8.89071 13.7002 7.18748 15.4814 5.74561C14.7897 10.1992 16.1306 15.3218 23.9222 18.2812V18.2747C26.4964 19.1231 29.4622 20.1801 32.2225 21.6059C37.2313 24.1965 39.3423 30.3533 36.7712 35.3682Z" fill="#0F1114"/>
<path d="M25.8442 15.4208C28.9985 15.4208 31.5556 12.8638 31.5556 9.70944C31.5556 6.55512 28.9985 3.99805 25.8442 3.99805C22.6899 3.99805 20.1328 6.55512 20.1328 9.70944C20.1328 12.8638 22.6899 15.4208 25.8442 15.4208Z" fill="#FE0000"/>
<path d="M21.6665 41.9999C24.8208 41.9999 27.3779 39.4429 27.3779 36.2885C27.3779 33.1342 24.8208 30.5771 21.6665 30.5771C18.5122 30.5771 15.9551 33.1342 15.9551 36.2885C15.9551 39.4429 18.5122 41.9999 21.6665 41.9999Z" fill="#FE0000"/>
</svg>
