<svg width="40" height="40" viewBox="0 0 40 40" fill="none" xmlns="http://www.w3.org/2000/svg">
<g clip-path="url(#clip0_1914_23732)">
<path d="M20.0002 22.4987C21.3809 22.4987 22.5002 21.3794 22.5002 19.9987C22.5002 18.618 21.3809 17.4987 20.0002 17.4987C18.6195 17.4987 17.5002 18.618 17.5002 19.9987C17.5002 21.3794 18.6195 22.4987 20.0002 22.4987Z" stroke="#C7C7CC" stroke-width="1.66667" stroke-linecap="round" stroke-linejoin="round"/>
<path d="M26.1668 22.4987C26.0559 22.75 26.0228 23.0289 26.0718 23.2992C26.1208 23.5695 26.2497 23.819 26.4418 24.0154L26.4918 24.0654C26.6468 24.2202 26.7697 24.404 26.8536 24.6063C26.9375 24.8086 26.9806 25.0255 26.9806 25.2445C26.9806 25.4636 26.9375 25.6804 26.8536 25.8828C26.7697 26.0851 26.6468 26.2689 26.4918 26.4237C26.337 26.5787 26.1532 26.7016 25.9509 26.7855C25.7486 26.8693 25.5317 26.9125 25.3127 26.9125C25.0936 26.9125 24.8768 26.8693 24.6744 26.7855C24.4721 26.7016 24.2883 26.5787 24.1335 26.4237L24.0835 26.3737C23.8871 26.1816 23.6376 26.0527 23.3673 26.0037C23.097 25.9547 22.8182 25.9878 22.5668 26.0987C22.3204 26.2043 22.1101 26.3797 21.9621 26.6033C21.814 26.8269 21.7346 27.0889 21.7335 27.357V27.4987C21.7335 27.9407 21.5579 28.3646 21.2453 28.6772C20.9328 28.9898 20.5089 29.1654 20.0668 29.1654C19.6248 29.1654 19.2009 28.9898 18.8883 28.6772C18.5758 28.3646 18.4002 27.9407 18.4002 27.4987V27.4237C18.3937 27.1479 18.3044 26.8804 18.1439 26.6559C17.9834 26.4315 17.7591 26.2606 17.5002 26.1654C17.2488 26.0544 16.97 26.0213 16.6997 26.0704C16.4293 26.1194 16.1799 26.2482 15.9835 26.4404L15.9335 26.4904C15.7787 26.6453 15.5949 26.7683 15.3926 26.8521C15.1902 26.936 14.9734 26.9792 14.7543 26.9792C14.5353 26.9792 14.3184 26.936 14.1161 26.8521C13.9138 26.7683 13.73 26.6453 13.5752 26.4904C13.4202 26.3356 13.2973 26.1518 13.2134 25.9494C13.1295 25.7471 13.0864 25.5302 13.0864 25.3112C13.0864 25.0922 13.1295 24.8753 13.2134 24.673C13.2973 24.4706 13.4202 24.2868 13.5752 24.132L13.6252 24.082C13.8173 23.8856 13.9462 23.6362 13.9952 23.3659C14.0442 23.0955 14.0111 22.8167 13.9002 22.5654C13.7945 22.3189 13.6191 22.1087 13.3956 21.9606C13.172 21.8126 12.91 21.7331 12.6418 21.732H12.5002C12.0581 21.732 11.6342 21.5564 11.3217 21.2439C11.0091 20.9313 10.8335 20.5074 10.8335 20.0654C10.8335 19.6233 11.0091 19.1994 11.3217 18.8869C11.6342 18.5743 12.0581 18.3987 12.5002 18.3987H12.5752C12.851 18.3922 13.1185 18.303 13.3429 18.1425C13.5673 17.9819 13.7383 17.7576 13.8335 17.4987C13.9444 17.2474 13.9775 16.9685 13.9285 16.6982C13.8795 16.4279 13.7506 16.1784 13.5585 15.982L13.5085 15.932C13.3535 15.7772 13.2306 15.5934 13.1467 15.3911C13.0629 15.1888 13.0197 14.9719 13.0197 14.7529C13.0197 14.5338 13.0629 14.317 13.1467 14.1146C13.2306 13.9123 13.3535 13.7285 13.5085 13.5737C13.6633 13.4187 13.8471 13.2958 14.0494 13.2119C14.2518 13.1281 14.4686 13.0849 14.6877 13.0849C14.9067 13.0849 15.1236 13.1281 15.3259 13.2119C15.5282 13.2958 15.712 13.4187 15.8668 13.5737L15.9168 13.6237C16.1132 13.8158 16.3627 13.9447 16.633 13.9937C16.9033 14.0427 17.1821 14.0096 17.4335 13.8987H17.5002C17.7466 13.7931 17.9568 13.6177 18.1049 13.3941C18.253 13.1705 18.3324 12.9085 18.3335 12.6404V12.4987C18.3335 12.0567 18.5091 11.6327 18.8217 11.3202C19.1342 11.0076 19.5581 10.832 20.0002 10.832C20.4422 10.832 20.8661 11.0076 21.1787 11.3202C21.4912 11.6327 21.6668 12.0567 21.6668 12.4987V12.5737C21.6679 12.8419 21.7474 13.1038 21.8954 13.3274C22.0435 13.551 22.2537 13.7264 22.5002 13.832C22.7515 13.943 23.0303 13.9761 23.3007 13.927C23.571 13.878 23.8204 13.7491 24.0168 13.557L24.0668 13.507C24.2216 13.3521 24.4054 13.2291 24.6078 13.1453C24.8101 13.0614 25.027 13.0182 25.246 13.0182C25.465 13.0182 25.6819 13.0614 25.8842 13.1453C26.0866 13.2291 26.2704 13.3521 26.4252 13.507C26.5801 13.6618 26.7031 13.8456 26.7869 14.048C26.8708 14.2503 26.914 14.4672 26.914 14.6862C26.914 14.9052 26.8708 15.1221 26.7869 15.3244C26.7031 15.5268 26.5801 15.7106 26.4252 15.8654L26.3752 15.9154C26.183 16.1118 26.0542 16.3612 26.0052 16.6315C25.9561 16.9019 25.9892 17.1807 26.1002 17.432V17.4987C26.2058 17.7452 26.3812 17.9554 26.6048 18.1034C26.8283 18.2515 27.0903 18.331 27.3585 18.332H27.5002C27.9422 18.332 28.3661 18.5076 28.6787 18.8202C28.9912 19.1327 29.1668 19.5567 29.1668 19.9987C29.1668 20.4407 28.9912 20.8646 28.6787 21.1772C28.3661 21.4898 27.9422 21.6654 27.5002 21.6654H27.4252C27.157 21.6664 26.895 21.7459 26.6714 21.894C26.4479 22.042 26.2725 22.2522 26.1668 22.4987Z" stroke="#C7C7CC" stroke-width="1.66667" stroke-linecap="round" stroke-linejoin="round"/>
</g>
<defs>
<clipPath id="clip0_1914_23732">
<rect width="20" height="20" fill="white" transform="translate(10 10)"/>
</clipPath>
</defs>
</svg>
