<svg width="24" height="24" viewBox="0 0 24 24" fill="none" xmlns="http://www.w3.org/2000/svg">
<path d="M18.1111 11.25C17.868 11.25 17.6348 11.1534 17.4629 10.9815C17.291 10.8096 17.1944 10.5764 17.1944 10.3333C17.1944 10.0902 17.291 9.85706 17.4629 9.68515C17.6348 9.51324 17.868 9.41667 18.1111 9.41667C18.3542 9.41667 18.5874 9.51324 18.7593 9.68515C18.9312 9.85706 19.0278 10.0902 19.0278 10.3333C19.0278 10.5764 18.9312 10.8096 18.7593 10.9815C18.5874 11.1534 18.3542 11.25 18.1111 11.25ZM14.7778 6.80556C14.5347 6.80556 14.3015 6.70898 14.1296 6.53707C13.9577 6.36516 13.8611 6.132 13.8611 5.88889C13.8611 5.64577 13.9577 5.41262 14.1296 5.24071C14.3015 5.0688 14.5347 4.97222 14.7778 4.97222C15.0209 4.97222 15.2541 5.0688 15.426 5.24071C15.5979 5.41262 15.6944 5.64577 15.6944 5.88889C15.6944 6.13201 15.5979 6.36516 15.426 6.53707C15.2541 6.70898 15.0209 6.80556 14.7778 6.80556ZM9.22222 6.80556C8.97911 6.80556 8.74595 6.70898 8.57404 6.53707C8.40213 6.36516 8.30556 6.132 8.30556 5.88889C8.30556 5.64577 8.40213 5.41262 8.57404 5.24071C8.74595 5.0688 8.97911 4.97222 9.22222 4.97222C9.46534 4.97222 9.6985 5.0688 9.8704 5.24071C10.0423 5.41262 10.1389 5.64577 10.1389 5.88889C10.1389 6.132 10.0423 6.36516 9.8704 6.53707C9.6985 6.70898 9.46534 6.80556 9.22222 6.80556ZM5.88889 11.25C5.64577 11.25 5.41262 11.1534 5.24071 10.9815C5.0688 10.8096 4.97222 10.5764 4.97222 10.3333C4.97222 10.0902 5.0688 9.85706 5.24071 9.68515C5.41262 9.51324 5.64577 9.41667 5.88889 9.41667C6.132 9.41667 6.36516 9.51324 6.53707 9.68515C6.70898 9.85706 6.80556 10.0902 6.80556 10.3333C6.80556 10.5764 6.70898 10.8096 6.53707 10.9815C6.36516 11.1534 6.13201 11.25 5.88889 11.25ZM12 1.25C9.14892 1.25 6.41462 2.38259 4.3986 4.3986C2.38259 6.41462 1.25 9.14892 1.25 12C1.25 14.8511 2.38259 17.5854 4.3986 19.6014C6.41462 21.6174 9.14892 22.75 12 22.75C12.6409 22.75 13.2556 22.4954 13.7088 22.0422C14.1621 21.589 14.4167 20.9743 14.4167 20.3333C14.4167 19.7098 14.1784 19.1468 13.7967 18.7269C13.6463 18.5466 13.5611 18.3294 13.5611 18.1111C13.5611 17.868 13.6577 17.6348 13.8296 17.4629C14.0015 17.291 14.2347 17.1944 14.4778 17.1944H16.4444C18.1168 17.1944 19.7206 16.5301 20.9031 15.3476C22.0857 14.1651 22.75 12.5612 22.75 10.8889C22.75 5.48283 17.8508 1.25 12 1.25Z" stroke="#FE0000" stroke-width="1.5"/>
</svg>
