<svg width="24" height="25" viewBox="0 0 24 25" fill="none" xmlns="http://www.w3.org/2000/svg">
<path d="M7.55016 21.8674C16.6045 21.8674 21.5583 14.3641 21.5583 7.85929C21.5583 7.64836 21.5536 7.43273 21.5442 7.22179C22.5079 6.52489 23.3395 5.66169 24 4.67273C23.1025 5.07203 22.1496 5.33281 21.1739 5.44617C22.2013 4.83034 22.9705 3.8629 23.3391 2.7232C22.3726 3.29599 21.3156 3.70004 20.2134 3.91804C19.4708 3.12899 18.489 2.60655 17.4197 2.43148C16.3504 2.25642 15.2532 2.43848 14.2977 2.94953C13.3423 3.46057 12.5818 4.27214 12.1338 5.25874C11.6859 6.24535 11.5754 7.35205 11.8195 8.40773C9.86249 8.30952 7.94794 7.80114 6.19998 6.91553C4.45203 6.02992 2.90969 4.78687 1.67297 3.26695C1.0444 4.35068 0.852057 5.63308 1.13503 6.85352C1.418 8.07397 2.15506 9.14088 3.19641 9.83742C2.41463 9.8126 1.64998 9.60211 0.965625 9.22335V9.28429C0.964925 10.4216 1.3581 11.524 2.07831 12.4042C2.79852 13.2844 3.80132 13.888 4.91625 14.1124C4.19206 14.3106 3.43198 14.3394 2.69484 14.1968C3.00945 15.1749 3.62157 16.0303 4.44577 16.6438C5.26997 17.2572 6.26512 17.598 7.29234 17.6187C5.54842 18.9885 3.39417 19.7316 1.17656 19.728C0.783287 19.7274 0.390399 19.7033 0 19.6559C2.25286 21.1012 4.87353 21.8688 7.55016 21.8674Z" fill="#98A2B3"/>
</svg>
