<svg width="157" height="125" viewBox="0 0 157 125" fill="none" xmlns="http://www.w3.org/2000/svg">
<path fill-rule="evenodd" clip-rule="evenodd" d="M23.5425 2.5585C22.3359 0.233919 19.4733 -0.672388 17.1488 0.534208C14.8242 1.7408 13.9179 4.60339 15.1245 6.92797L19.6189 15.5867C20.8254 17.9113 23.688 18.8176 26.0126 17.611C28.3372 16.4044 29.2435 13.5418 28.0369 11.2172L23.5425 2.5585ZM18.8073 3.72942C19.3672 3.43879 20.0567 3.65709 20.3473 4.21701L24.8417 12.8757C25.1323 13.4357 24.914 14.1252 24.3541 14.4158C23.7942 14.7064 23.1047 14.4881 22.8141 13.9282L18.3197 5.26947C18.029 4.70955 18.2473 4.02005 18.8073 3.72942ZM35.4519 23.2559C29.4872 23.2559 24.6519 28.0913 24.6519 34.0559V109.842C24.6519 115.807 29.4872 120.642 35.4519 120.642H107.452C113.417 120.642 118.252 115.807 118.252 109.842V98.153C110.72 93.7958 105.652 85.6518 105.652 76.3243C105.652 66.9967 110.72 58.8528 118.252 54.4956V34.0559C118.252 28.0912 113.417 23.2559 107.452 23.2559H100.066V25.9863C100.066 30.9569 96.0364 34.9863 91.0658 34.9863H55.4383C50.4677 34.9863 46.4383 30.9569 46.4383 25.9863V23.2559H35.4519ZM121.852 52.7789V34.0559C121.852 26.103 115.405 19.6559 107.452 19.6559H83.7921C82.5696 14.977 78.314 11.5243 73.252 11.5243C68.1901 11.5243 63.9345 14.977 62.712 19.6559H35.4519C27.499 19.6559 21.0519 26.103 21.0519 34.0559V109.842C21.0519 117.795 27.499 124.242 35.4519 124.242H107.452C115.405 124.242 121.852 117.795 121.852 109.842V99.8696C124.647 100.939 127.681 101.524 130.852 101.524C144.769 101.524 156.052 90.2419 156.052 76.3243C156.052 62.4067 144.769 51.1243 130.852 51.1243C127.681 51.1243 124.647 51.7099 121.852 52.7789ZM1.10141 16.7044C2.27282 14.3619 5.12141 13.4126 7.46393 14.584L16.1894 18.9473C18.532 20.1187 19.4813 22.9673 18.3099 25.3098C17.1385 27.6523 14.2899 28.6017 11.9474 27.4303L3.22188 23.067C0.87937 21.8955 -0.069996 19.047 1.10141 16.7044ZM5.85379 17.8038C5.28956 17.5217 4.60342 17.7503 4.32126 18.3146C4.03911 18.8788 4.26778 19.565 4.83202 19.8471L13.5575 24.2104C14.1218 24.4926 14.8079 24.2639 15.0901 23.6997C15.3722 23.1354 15.1435 22.4493 14.5793 22.1671L5.85379 17.8038ZM63.0724 59.4721C63.0724 56.9868 65.0871 54.9721 67.5724 54.9721H98.1724C100.658 54.9721 102.672 56.9868 102.672 59.4721C102.672 61.9574 100.658 63.9721 98.1724 63.9721H67.5724C65.0871 63.9721 63.0724 61.9574 63.0724 59.4721ZM67.5724 76.0448C65.0871 76.0448 63.0724 78.0595 63.0724 80.5448C63.0724 83.0301 65.0871 85.0448 67.5724 85.0448H98.1724C100.658 85.0448 102.672 83.0301 102.672 80.5448C102.672 78.0595 100.658 76.0448 98.1724 76.0448H67.5724ZM66.6724 80.5448C66.6724 80.0477 67.0754 79.6448 67.5724 79.6448H98.1724C98.6695 79.6448 99.0724 80.0477 99.0724 80.5448C99.0724 81.0418 98.6695 81.4448 98.1724 81.4448H67.5724C67.0754 81.4448 66.6724 81.0418 66.6724 80.5448ZM63.0724 102.579C63.0724 100.094 65.0871 98.079 67.5724 98.079H98.1724C100.658 98.079 102.672 100.094 102.672 102.579C102.672 105.064 100.658 107.079 98.1724 107.079H67.5724C65.0871 107.079 63.0724 105.064 63.0724 102.579ZM67.5724 101.679C67.0754 101.679 66.6724 102.082 66.6724 102.579C66.6724 103.076 67.0754 103.479 67.5724 103.479H98.1724C98.6695 103.479 99.0724 103.076 99.0724 102.579C99.0724 102.082 98.6695 101.679 98.1724 101.679H67.5724ZM42.9613 57.8585C42.9613 54.8761 45.379 52.4585 48.3613 52.4585H51.2165C54.1988 52.4585 56.6165 54.8761 56.6165 57.8585V60.7136C56.6165 63.696 54.1988 66.1136 51.2165 66.1136H48.3613C45.379 66.1136 42.9613 63.696 42.9613 60.7136V57.8585ZM48.3613 73.5311C45.379 73.5311 42.9613 75.9488 42.9613 78.9311V81.7863C42.9613 84.7686 45.379 87.1863 48.3613 87.1863H51.2165C54.1988 87.1863 56.6165 84.7686 56.6165 81.7863V78.9311C56.6165 75.9488 54.1988 73.5311 51.2165 73.5311H48.3613ZM46.5613 78.9311C46.5613 77.937 47.3672 77.1311 48.3613 77.1311H51.2165C52.2106 77.1311 53.0165 77.937 53.0165 78.9311V81.7863C53.0165 82.7804 52.2106 83.5863 51.2165 83.5863H48.3613C47.3672 83.5863 46.5613 82.7804 46.5613 81.7863V78.9311ZM42.9613 100.965C42.9613 97.9829 45.379 95.5653 48.3613 95.5653H51.2165C54.1988 95.5653 56.6165 97.983 56.6165 100.965V103.82C56.6165 106.803 54.1988 109.22 51.2165 109.22H48.3613C45.379 109.22 42.9613 106.803 42.9613 103.82V100.965ZM48.3613 99.1653C47.3672 99.1653 46.5613 99.9712 46.5613 100.965V103.82C46.5613 104.815 47.3672 105.62 48.3613 105.62H51.2165C52.2106 105.62 53.0165 104.815 53.0165 103.82V100.965C53.0165 99.9712 52.2106 99.1653 51.2165 99.1653H48.3613ZM109.252 76.3243C109.252 64.3949 118.923 54.7243 130.852 54.7243C142.781 54.7243 152.452 64.3949 152.452 76.3243C152.452 88.2536 142.781 97.9243 130.852 97.9243C118.923 97.9243 109.252 88.2536 109.252 76.3243ZM126.352 64.6243C126.352 62.139 128.367 60.1243 130.852 60.1243C133.337 60.1243 135.352 62.139 135.352 64.6243V75.4243C135.352 77.9096 133.337 79.9243 130.852 79.9243C128.367 79.9243 126.352 77.9096 126.352 75.4243V64.6243ZM130.852 63.7243C130.355 63.7243 129.952 64.1272 129.952 64.6243V75.4243C129.952 75.9213 130.355 76.3243 130.852 76.3243C131.349 76.3243 131.752 75.9213 131.752 75.4243V64.6243C131.752 64.1272 131.349 63.7243 130.852 63.7243ZM130.852 92.5243C128.367 92.5243 126.352 90.5096 126.352 88.0243C126.352 85.539 128.367 83.5243 130.852 83.5243C133.337 83.5243 135.352 85.539 135.352 88.0243C135.352 90.5096 133.337 92.5243 130.852 92.5243ZM129.952 88.0243C129.952 88.5213 130.355 88.9243 130.852 88.9243C131.349 88.9243 131.752 88.5213 131.752 88.0243C131.752 87.5272 131.349 87.1243 130.852 87.1243C130.355 87.1243 129.952 87.5272 129.952 88.0243Z" fill="#C9D2D8"/>
</svg>
