<svg width="16" height="17" viewBox="0 0 16 17" fill="none" xmlns="http://www.w3.org/2000/svg">
<g clip-path="url(#clip0_1952_14445)">
<path d="M10.6666 10.9326L7.99997 8.26594M7.99997 8.26594L5.33331 10.9326M7.99997 8.26594V14.2659M13.5933 12.5259C14.2435 12.1715 14.7572 11.6105 15.0532 10.9317C15.3493 10.2529 15.4108 9.49476 15.2281 8.77707C15.0454 8.05937 14.629 7.42295 14.0444 6.96824C13.4599 6.51353 12.7406 6.26643 12 6.26594H11.16C10.9582 5.48543 10.5821 4.76083 10.0599 4.1466C9.5378 3.53237 8.8832 3.04451 8.14537 2.71968C7.40754 2.39485 6.60567 2.24151 5.80005 2.27119C4.99443 2.30088 4.20602 2.51281 3.49409 2.89105C2.78216 3.26929 2.16525 3.80401 1.68972 4.45499C1.2142 5.10598 0.892434 5.8563 0.748627 6.64954C0.60482 7.44277 0.64271 8.25829 0.859449 9.03478C1.07619 9.81127 1.46613 10.5285 1.99997 11.1326" stroke="#0C0EFF" stroke-width="1.66667" stroke-linecap="round" stroke-linejoin="round"/>
</g>
<defs>
<clipPath id="clip0_1952_14445">
<rect width="16" height="16" fill="white" transform="translate(0 0.265625)"/>
</clipPath>
</defs>
</svg>
